<svg width="62" height="42" viewBox="0 0 62 42" fill="none" xmlns="http://www.w3.org/2000/svg">
<path d="M0.00854492 27.0325C20.6695 37.1435 41.3305 16.9121 61.9915 27.0231V14.9696C41.3305 4.85851 20.6695 25.0899 0.00854492 14.9789V27.0325Z" fill="white"/>
<path d="M0.00854492 14.9787C20.6695 25.0898 41.3305 4.85841 61.9915 14.9694V2.91768C41.3305 -7.19334 20.6695 13.0381 0.00854492 2.92699V14.9787Z" fill="#97B4D8"/>
<path d="M0.00854492 39.0823C20.6695 49.1933 41.3305 28.9619 61.9915 39.0729V27.0231C41.3305 16.912 20.6695 37.1434 0.00854492 27.0324V39.0823Z" fill="#97B4D8"/>
<path d="M30.7529 21.0578C30.8155 22.6874 30.878 24.3169 30.9406 25.9465C30.9406 25.9465 30.9406 26.0385 31.0019 26.0235C31.0595 26.0094 31.0595 25.9174 31.0595 25.9174C31.1221 24.2572 31.1846 22.5969 31.2471 20.9367C31.0824 20.9771 30.9177 21.0174 30.7529 21.0578Z" fill="#F1BD51"/>
<path d="M31.0019 26.0379C30.9405 26.0529 30.926 25.9843 30.926 25.9501C30.8635 24.3223 30.801 22.6945 30.7385 21.0667C30.7494 21.0622 30.7602 21.0578 30.771 21.0534C30.8311 22.6835 30.8912 24.3137 30.9513 25.9439C30.9513 25.9439 30.9513 26.0197 31.0019 26.0073C31.0451 25.9967 31.0451 25.9209 31.0451 25.9209C31.1076 24.2607 31.1702 22.6005 31.2327 20.9403C31.1822 22.5975 31.1316 24.2549 31.0811 25.9122C31.0811 25.9463 31.0595 26.0238 31.0019 26.0379Z" fill="#7A361D"/>
<path d="M30.8793 21.0269C30.9202 22.1465 30.961 23.2661 31.0019 24.3857C31.0415 23.2464 31.0812 22.1071 31.1208 20.9677C31.0403 20.9875 30.9598 21.0072 30.8793 21.0269Z" fill="#7A361D"/>
<path d="M30.5365 22.707C30.2552 23.3964 30.4895 23.8458 30.2155 24.454C29.9268 25.0655 30.1036 25.4678 30.0892 25.7221C30.0676 25.9762 29.8692 26.0949 29.9161 26.1413C29.9702 26.1841 30.1829 26.0202 30.2624 25.667C30.3453 25.3167 30.1505 25.175 30.4824 24.4301C30.8252 23.6808 30.5581 23.4468 30.9009 22.7694C30.7794 22.7486 30.6579 22.7278 30.5365 22.707Z" fill="#F1BD51"/>
<path d="M29.9703 26.155C29.9474 26.1546 29.9246 26.1542 29.9017 26.1539C29.8765 26.1238 29.9018 26.0816 29.9413 26.0323C29.9882 25.9667 30.0639 25.8653 30.0676 25.7237C30.0748 25.6552 30.0676 25.5776 30.0567 25.4864C30.0279 25.241 29.9882 24.9044 30.2011 24.452C30.3381 24.1479 30.3453 23.8901 30.3561 23.6151C30.3635 23.341 30.3778 23.0542 30.5256 22.7043C30.5341 22.7058 30.5425 22.7074 30.5509 22.709C30.4102 23.0518 30.3958 23.3366 30.3886 23.609C30.3779 23.8838 30.3635 24.1526 30.2299 24.4558C30.0207 24.8983 30.0639 25.2358 30.0892 25.4785C30.0964 25.5705 30.1036 25.6482 30.1036 25.7186C30.0892 25.8717 30.0135 25.975 29.9631 26.0469C29.9269 26.0971 29.9161 26.1141 29.9269 26.1278C30.0495 26.0816 30.1902 25.9283 30.2515 25.6661C30.2769 25.5518 30.2769 25.456 30.2696 25.3551C30.2553 25.1513 30.2515 24.9213 30.4752 24.4246C30.6448 24.055 30.6628 23.8124 30.6772 23.5797C30.6917 23.3381 30.7133 23.1075 30.8865 22.7639C30.7386 23.112 30.7241 23.3357 30.7061 23.5727C30.6917 23.807 30.67 24.0594 30.504 24.4301C30.284 24.9206 30.2912 25.1478 30.2948 25.3453C30.3021 25.4517 30.3021 25.5474 30.2768 25.6709C30.2155 25.9256 30.082 26.1008 29.981 26.1508C29.9774 26.1522 29.9738 26.1536 29.9703 26.155Z" fill="#7A361D"/>
<path d="M30.6194 22.8436C30.3958 23.517 30.6266 23.8681 30.3309 24.467C30.6591 24.0098 30.4427 23.5794 30.7242 22.8702C30.6893 22.8613 30.6543 22.8524 30.6194 22.8436Z" fill="#7A361D"/>
<path d="M31.2471 20.9368C31.1846 19.3103 31.1221 17.6837 31.0595 16.0571C31.0595 16.0571 31.0595 15.967 31.0019 15.9811C30.9406 15.9961 30.9406 16.0862 30.9406 16.0862C30.878 17.7434 30.8155 19.4007 30.7529 21.0579C30.9176 21.0175 31.0824 20.9772 31.2471 20.9368Z" fill="#F1BD51"/>
<path d="M31.2327 20.9458C31.1702 19.318 31.1076 17.6903 31.0451 16.0626C31.0451 16.0626 31.0451 15.9832 31.0019 15.9937C30.9513 16.0061 30.9513 16.0837 30.9513 16.0837C30.8912 17.7421 30.8311 19.4004 30.771 21.0588C30.8226 19.4025 30.8743 17.7462 30.926 16.0899C30.926 16.0502 30.9405 15.9762 31.0019 15.9612C31.0595 15.9471 31.0811 16.0122 31.0811 16.0519C31.1437 17.6784 31.2062 19.305 31.2687 20.9316C31.2567 20.9363 31.2447 20.9411 31.2327 20.9458Z" fill="#7A361D"/>
<path d="M31.1208 20.9677L31.0019 17.6187C30.961 18.7547 30.9202 19.8908 30.8793 21.0269C30.9598 21.0071 31.0403 20.9874 31.1208 20.9677Z" fill="#7A361D"/>
<path d="M31.4671 19.2922C31.7486 18.6065 31.5068 18.1589 31.7881 17.5471C32.0768 16.9337 31.8964 16.5324 31.9107 16.2817C31.9325 16.0293 32.1381 15.9087 32.084 15.8625C32.0371 15.8179 31.8243 15.9853 31.7377 16.3329C31.6548 16.6834 31.8566 16.8252 31.5141 17.5744C31.175 18.3193 31.449 18.5516 31.1064 19.2308C31.2267 19.2512 31.3469 19.2717 31.4671 19.2922Z" fill="#F1BD51"/>
<path d="M31.4815 19.2959C31.4732 19.2943 31.4648 19.2927 31.4564 19.2911C31.5935 18.951 31.6006 18.6697 31.6151 18.3956C31.6223 18.116 31.6367 17.851 31.7774 17.5425C31.9758 17.1026 31.9433 16.7733 31.9107 16.527C31.9107 16.4313 31.8963 16.3501 31.9036 16.2835C31.9107 16.1284 31.9901 16.0243 32.0371 15.955C32.0768 15.9021 32.084 15.884 32.0768 15.8749C31.9577 15.9131 31.8171 16.0682 31.7558 16.3322C31.7233 16.4537 31.7305 16.5476 31.7377 16.645C31.7449 16.8506 31.7558 17.077 31.5285 17.5764C31.3626 17.9452 31.341 18.1904 31.3264 18.4248C31.3085 18.6654 31.294 18.8908 31.1208 19.2326C31.2615 18.888 31.2795 18.6635 31.2941 18.4272C31.3119 18.1903 31.3264 17.9487 31.4996 17.5689C31.7233 17.0831 31.7161 16.854 31.7017 16.6538C31.7017 16.5546 31.6945 16.4554 31.7233 16.3364C31.7881 16.0537 31.936 15.8914 32.0227 15.8521C32.0251 15.8509 32.0275 15.8497 32.0299 15.8485L32.0984 15.8518C32.1309 15.8761 32.0984 15.9203 32.0624 15.9686C32.019 16.0333 31.936 16.1366 31.9325 16.2764C31.9253 16.3466 31.9325 16.426 31.9433 16.5153C31.9685 16.7672 32.0118 17.1011 31.8027 17.5507C31.6619 17.852 31.6548 18.1136 31.6439 18.3885C31.6367 18.6627 31.6223 18.9512 31.4815 19.2959Z" fill="#7A361D"/>
<path d="M31.3877 19.1548C31.6151 18.4841 31.3734 18.132 31.6764 17.5348C31.3482 17.9902 31.5573 18.4225 31.276 19.128C31.3132 19.1369 31.3505 19.1458 31.3877 19.1548Z" fill="#7A361D"/>
<path d="M31.0019 20.7532C29.3581 21.2165 27.7144 21.6799 26.0707 22.1127C26.0707 22.1127 25.9771 22.1339 25.9771 22.1952C25.9771 22.2619 26.0707 22.2407 26.0707 22.2407C27.7144 21.93 29.3581 21.5887 31.0019 21.2475V20.7532Z" fill="#F1BD51"/>
<path d="M31.0054 21.2322C29.3605 21.5828 27.7156 21.9333 26.0707 22.2533C26.0384 22.2606 25.9662 22.2625 25.9662 22.1977C25.9662 22.1417 26.0384 22.1092 26.0707 22.1019C27.7144 21.6679 29.3582 21.2034 31.0019 20.7389C31.0031 20.7488 31.0043 20.7587 31.0054 20.7686C29.3605 21.2328 27.7156 21.697 26.0707 22.1307C26.0707 22.1307 25.9915 22.1486 25.9915 22.192C25.9915 22.2424 26.0707 22.2245 26.0707 22.2245C27.7156 21.9141 29.3605 21.5731 31.0054 21.2322Z" fill="#7A361D"/>
<path d="M31.0019 20.876C29.874 21.1925 28.7461 21.509 27.6182 21.8157C28.7461 21.5913 29.874 21.3571 31.0019 21.123V20.876Z" fill="#7A361D"/>
<path d="M29.4074 20.9245C28.7905 20.7894 28.2819 21.1533 27.7444 20.9993C27.1961 20.8479 26.7525 21.1273 26.5 21.167C26.2546 21.2017 26.186 21.0132 26.1247 21.0812C26.0706 21.1422 26.186 21.3292 26.5144 21.3368C26.8463 21.3451 27.0338 21.1058 27.6975 21.2863C28.3613 21.4734 28.6642 21.128 29.2595 21.3246C29.3088 21.1913 29.3581 21.0579 29.4074 20.9245Z" fill="#F1BD51"/>
<path d="M29.2667 21.3068C28.9564 21.2432 28.7292 21.2799 28.5019 21.3147C28.2675 21.3547 28.0257 21.3945 27.6903 21.3025C27.2575 21.183 27.0302 21.2429 26.8282 21.2988C26.72 21.3311 26.6261 21.3545 26.5144 21.3514C26.2655 21.3472 26.1247 21.2436 26.1031 21.1493C26.1019 21.146 26.1008 21.1426 26.0996 21.1393C26.1056 21.1163 26.1116 21.0933 26.1175 21.0703C26.1609 21.0262 26.1932 21.0532 26.2329 21.0802C26.2798 21.1182 26.3665 21.1724 26.5072 21.1491C26.5648 21.1413 26.655 21.1098 26.7416 21.0789C26.9977 20.9944 27.3513 20.8707 27.7516 20.9832C28.0222 21.0599 28.2747 21.0121 28.5488 20.9535C28.823 20.8948 29.0971 20.841 29.4146 20.9065C29.4122 20.9173 29.4098 20.9281 29.4074 20.9389C29.0899 20.8735 28.8158 20.9309 28.5488 20.9841C28.2675 21.0408 28.0078 21.0975 27.7335 21.0163C27.3441 20.9049 26.9978 21.0235 26.7488 21.1098C26.655 21.1424 26.572 21.1687 26.5 21.1796C26.3521 21.2028 26.2655 21.1468 26.2113 21.1067C26.1716 21.0834 26.1537 21.0747 26.1391 21.0908C26.1537 21.2082 26.2655 21.3166 26.5216 21.3207C26.6262 21.3221 26.7199 21.2986 26.8282 21.27C27.0302 21.2141 27.2646 21.1488 27.7048 21.2721C28.0329 21.3639 28.2747 21.3224 28.5019 21.2857C28.7364 21.2475 28.9636 21.2089 29.2667 21.3068Z" fill="#7A361D"/>
<path d="M29.2524 21.0381C28.6355 20.9711 28.2279 21.2998 27.6976 21.1297C28.0728 21.371 28.5633 21.0356 29.1982 21.1685C29.2163 21.125 29.2343 21.0815 29.2524 21.0381Z" fill="#7A361D"/>
<path d="M31.0018 21.2476C32.6455 20.7837 34.2892 20.3198 35.9328 19.8865C35.9328 19.8865 36.023 19.8661 36.023 19.7995C36.023 19.7382 35.9328 19.7585 35.9328 19.7585C34.2892 20.0698 32.6455 20.4115 31.0018 20.7533V21.2476Z" fill="#F1BD51"/>
<path d="M31.0053 21.2646L31.0018 21.233C32.6455 20.7685 34.2892 20.304 35.9328 19.8701C35.9328 19.8701 36.0086 19.853 36.0086 19.8026C36.0086 19.7591 35.9328 19.7763 35.9328 19.7763C34.2892 20.087 32.6455 20.4282 31.0018 20.7695C32.6455 20.4186 34.2892 20.0678 35.9328 19.7475C35.9653 19.7401 36.0339 19.7409 36.0339 19.7969C36.0339 19.8617 35.9653 19.8916 35.9328 19.8989C34.2904 20.3338 32.6478 20.7992 31.0053 21.2646Z" fill="#7A361D"/>
<path d="M31.0018 21.123C32.1297 20.8048 33.2575 20.4865 34.3854 20.1781C33.2575 20.4042 32.1297 20.6401 31.0018 20.8761V21.123Z" fill="#7A361D"/>
<path d="M32.5927 21.0773C33.2167 21.2089 33.7253 20.8431 34.2663 21C34.8039 21.1576 35.251 20.8737 35.5 20.8383C35.7453 20.8002 35.8138 20.9868 35.8751 20.9204C35.933 20.857 35.8138 20.6708 35.4856 20.663C35.1574 20.6575 34.9626 20.9004 34.306 20.7146C33.6388 20.5319 33.3357 20.8774 32.7478 20.6771C32.6961 20.8105 32.6444 20.9439 32.5927 21.0773Z" fill="#F1BD51"/>
<path d="M35.8535 20.9504C35.8282 20.9562 35.7994 20.9411 35.7741 20.9216C35.72 20.8853 35.6408 20.8311 35.5 20.8543C35.4315 20.8628 35.3521 20.8902 35.2583 20.9244C34.9986 21.0115 34.656 21.1274 34.2591 21.014C33.985 20.9382 33.7326 20.9894 33.4548 21.0455C33.1805 21.1042 32.8992 21.1594 32.5854 21.0914C32.5902 21.0813 32.595 21.0711 32.5998 21.061C32.9064 21.127 33.1805 21.0717 33.4548 21.0166C33.7325 20.9606 33.9922 20.9095 34.2735 20.9837C34.6632 21.0969 35.0022 20.9782 35.2511 20.8938C35.3521 20.8614 35.4316 20.8322 35.5 20.8237C35.648 20.8006 35.7346 20.8548 35.7922 20.8923C35.8391 20.9212 35.8536 20.9216 35.8607 20.9146C35.8536 20.7972 35.7346 20.687 35.4856 20.6827C35.3737 20.6797 35.2801 20.7029 35.179 20.73C34.9698 20.7911 34.7424 20.8547 34.2988 20.7305C33.9669 20.6412 33.7326 20.6794 33.5052 20.7177C33.2671 20.755 33.0434 20.7928 32.7406 20.6912C33.0472 20.7613 33.2671 20.7226 33.5052 20.6852C33.7325 20.6488 33.9741 20.6107 34.3132 20.7018C34.7424 20.8222 34.9698 20.7587 35.179 20.6993C35.2801 20.6722 35.3774 20.6444 35.4928 20.6486C35.7525 20.6541 35.8788 20.7752 35.9004 20.8531V20.8622C35.8932 20.8855 35.886 20.9088 35.8788 20.9321C35.8751 20.9437 35.8679 20.9472 35.8535 20.9504Z" fill="#7A361D"/>
<path d="M32.7478 20.9601C33.3682 21.0334 33.7795 20.7039 34.306 20.8713C33.9309 20.6337 33.4439 20.9663 32.8054 20.8344C32.7862 20.8763 32.767 20.9182 32.7478 20.9601Z" fill="#7A361D"/>
<path d="M30.8251 20.8689C29.7068 22.3487 28.5885 23.8281 27.4702 25.2974C27.4702 25.2974 27.4089 25.3766 27.4523 25.4117C27.492 25.4418 27.5568 25.3617 27.5568 25.3617C28.7629 23.9591 29.9689 22.5449 31.1749 21.1313C31.0583 21.0438 30.9417 20.9564 30.8251 20.8689Z" fill="#F1BD51"/>
<path d="M27.4848 25.4346C27.3982 25.3918 27.4379 25.3174 27.4595 25.2872C28.5777 23.8192 29.696 22.3411 30.8142 20.8624C30.8226 20.867 30.831 20.8715 30.8395 20.8761C29.7212 22.3554 28.603 23.8342 27.4848 25.3029C27.4776 25.3046 27.4307 25.3714 27.4595 25.3953C27.4919 25.4257 27.5533 25.3516 27.5533 25.3516C28.7581 23.9504 29.9629 22.5378 31.1677 21.1258C29.9689 22.5442 28.77 23.9631 27.5712 25.3708C27.5712 25.3708 27.5317 25.4217 27.4848 25.4346Z" fill="#7A361D"/>
<path d="M30.9115 20.9342C30.1444 21.9487 29.3772 22.9632 28.6101 23.9744C29.4374 23.007 30.2647 22.0359 31.092 21.0649C31.0318 21.0213 30.9716 20.9778 30.9115 20.9342Z" fill="#7A361D"/>
<path d="M29.5445 22.1537C28.9024 22.5459 28.7149 23.1252 28.1412 23.4427C27.5534 23.7685 27.3657 24.2484 27.1781 24.4567C26.9906 24.6629 26.7958 24.6123 26.7886 24.6934C26.7886 24.7672 27.0159 24.7835 27.3116 24.539C27.5966 24.3006 27.5894 24.0253 28.3001 23.6284C29.0178 23.227 29.0324 22.8209 29.696 22.4847C29.6455 22.3744 29.595 22.2641 29.5445 22.1537Z" fill="#F1BD51"/>
<path d="M26.9546 24.7488C26.8968 24.7622 26.8464 24.7614 26.8139 24.7507C26.8007 24.7328 26.7874 24.7148 26.7742 24.6968C26.7742 24.6464 26.8211 24.6337 26.8752 24.6193C26.9473 24.5954 27.0555 24.563 27.1637 24.4476C27.2178 24.3934 27.2647 24.3193 27.3153 24.2354C27.4777 23.997 27.6977 23.6695 28.1341 23.4282C28.4227 23.2692 28.6139 23.0501 28.8087 22.8173C29.0106 22.581 29.2198 22.3392 29.5408 22.1438C29.5445 22.152 29.5481 22.1602 29.5518 22.1683C29.2379 22.3618 29.0324 22.601 28.8304 22.8337C28.6283 23.0717 28.4406 23.2937 28.1412 23.4555C27.7192 23.6895 27.4956 24.0163 27.3441 24.2465C27.2828 24.3366 27.2359 24.4089 27.1855 24.4641C27.0701 24.5903 26.9546 24.6262 26.8752 24.6518C26.8283 24.6627 26.803 24.6703 26.803 24.6901C26.904 24.7425 27.0845 24.7096 27.2972 24.5318C27.3982 24.4484 27.4596 24.3638 27.5318 24.2709C27.6651 24.0916 27.8274 23.8785 28.3001 23.6141C28.6499 23.4167 28.8304 23.216 29.0034 23.0281C29.1838 22.8276 29.3534 22.6405 29.696 22.4668C29.3713 22.665 29.2054 22.8458 29.025 23.0445C28.852 23.238 28.6715 23.4385 28.3073 23.6411C27.8456 23.9013 27.6904 24.1054 27.5534 24.2876C27.4849 24.3795 27.4164 24.4676 27.3153 24.551C27.1781 24.6661 27.0554 24.7253 26.9546 24.7488Z" fill="#7A361D"/>
<path d="M29.4867 22.3356C28.8951 22.7588 28.769 23.2421 28.1953 23.5435C28.6895 23.3891 28.8772 22.8497 29.5336 22.4431C29.5179 22.4073 29.5023 22.3714 29.4867 22.3356Z" fill="#7A361D"/>
<path d="M31.1749 21.1313C32.2931 19.6533 33.4113 18.1757 34.5296 16.7082C34.5296 16.7082 34.5946 16.6263 34.5549 16.5905C34.508 16.5582 34.443 16.6367 34.443 16.6367C33.237 18.0399 32.0311 19.4547 30.8251 20.8689C30.9417 20.9564 31.0583 21.0438 31.1749 21.1313Z" fill="#F1BD51"/>
<path d="M31.1858 21.1392L31.1677 21.1292C32.2859 19.6488 33.4042 18.1688 34.5224 16.699C34.5224 16.6971 34.5693 16.632 34.5405 16.6044C34.5079 16.5832 34.4539 16.6448 34.4539 16.6448C33.2467 18.0483 32.0395 19.4633 30.8323 20.8778C32.0334 19.4576 33.2346 18.0368 34.4358 16.6274C34.4539 16.5997 34.5224 16.5457 34.5621 16.5777C34.6018 16.6134 34.5621 16.6825 34.5405 16.7126C33.4222 18.1812 32.304 19.6599 31.1858 21.1392Z" fill="#7A361D"/>
<path d="M31.092 21.0649C31.8603 20.0507 32.6286 19.0366 33.3969 18.0258C32.5684 18.9928 31.74 19.9636 30.9115 20.9342C30.9717 20.9778 31.0318 21.0214 31.092 21.0649Z" fill="#7A361D"/>
<path d="M32.4591 19.8472C33.0941 19.4549 33.2815 18.8793 33.8659 18.5573C34.4468 18.2367 34.6415 17.7497 34.829 17.5434C35.0167 17.3388 35.2115 17.3895 35.2115 17.31C35.2187 17.2327 34.9914 17.2148 34.6957 17.4609C34.3998 17.7057 34.407 17.9755 33.7 18.3751C32.9894 18.7749 32.9678 19.1843 32.3112 19.5225C32.3604 19.6307 32.4098 19.7389 32.4591 19.8472Z" fill="#F1BD51"/>
<path d="M32.4591 19.8616C32.4567 19.8532 32.4543 19.8448 32.4519 19.8364C32.7694 19.6419 32.9677 19.4009 33.1698 19.17C33.3681 18.9326 33.563 18.7071 33.8659 18.5428C34.2807 18.3141 34.5008 17.9937 34.656 17.757C34.7173 17.6669 34.7677 17.5919 34.8218 17.5324C34.9301 17.4116 35.0492 17.3767 35.1249 17.3536C35.179 17.3375 35.1969 17.3297 35.1969 17.3134C35.1033 17.2594 34.9229 17.2905 34.7029 17.4719C34.6091 17.5497 34.5406 17.6399 34.4755 17.7274C34.3348 17.914 34.1726 18.1215 33.7035 18.3923C33.35 18.5871 33.1698 18.7821 32.993 18.9763C32.8126 19.1751 32.6467 19.3632 32.3112 19.535C32.6323 19.3414 32.8019 19.1542 32.9749 18.9572C33.1482 18.7639 33.3356 18.5652 33.7 18.3625C34.1618 18.0988 34.3132 17.8938 34.4467 17.7161C34.5224 17.6207 34.5875 17.535 34.6885 17.4482C34.9048 17.2694 35.096 17.2232 35.1862 17.2529C35.2006 17.2718 35.215 17.2907 35.2295 17.3096C35.2223 17.3545 35.1791 17.3682 35.1249 17.3861C35.0564 17.4038 34.9445 17.4371 34.8434 17.5508C34.7893 17.6085 34.7425 17.6808 34.6811 17.7692C34.5225 18.0102 34.2988 18.3369 33.8731 18.5683C33.5774 18.729 33.3898 18.9546 33.1879 19.1872C32.9893 19.421 32.7801 19.6645 32.4591 19.8616Z" fill="#7A361D"/>
<path d="M32.5132 19.6663C33.1084 19.2403 33.2346 18.7571 33.8118 18.4602C33.3177 18.611 33.1229 19.1519 32.4735 19.5568C32.4867 19.5933 32.5 19.6298 32.5132 19.6663Z" fill="#7A361D"/>
<path d="M31.1749 20.783C29.9689 19.9595 28.7629 19.1366 27.5569 18.3021C27.5569 18.3021 27.492 18.2543 27.4523 18.307C27.4089 18.3623 27.4702 18.4145 27.4702 18.4145C28.5885 19.3556 29.7068 20.2864 30.8251 21.2168C30.9417 21.0722 31.0583 20.9276 31.1749 20.783Z" fill="#F1BD51"/>
<path d="M30.8395 21.2097C29.7129 20.285 28.5862 19.3599 27.4596 18.4244C27.438 18.4044 27.3982 18.3541 27.4451 18.2998C27.4849 18.2473 27.5462 18.2707 27.5713 18.2882C28.7761 19.1227 29.981 19.9458 31.1859 20.7696C31.1798 20.7783 31.1738 20.787 31.1678 20.7958C29.9629 19.9726 28.7581 19.15 27.5534 18.3159C27.5534 18.3159 27.492 18.2797 27.4596 18.3162C27.4307 18.3573 27.4777 18.4004 27.4849 18.3987C28.6031 19.3426 29.7213 20.2764 30.8395 21.2097Z" fill="#7A361D"/>
<path d="M31.092 20.89C30.2647 20.3249 29.4374 19.7599 28.6101 19.1911C29.3773 19.8327 30.1444 20.4709 30.9115 21.1091C30.9717 21.0361 31.0318 20.9631 31.092 20.89Z" fill="#7A361D"/>
<path d="M30.2011 19.7426C29.9702 19.1588 29.44 19.1024 29.2523 18.5651C29.0719 18.0211 28.6354 17.9406 28.4696 17.7892C28.3073 17.6405 28.4011 17.425 28.3216 17.4387C28.2459 17.4514 28.1809 17.7013 28.347 17.952C28.5272 18.1993 28.8015 18.1278 29.0324 18.7826C29.2595 19.4365 29.6599 19.3626 29.8404 19.9805C29.9606 19.9012 30.0809 19.8219 30.2011 19.7426Z" fill="#F1BD51"/>
<path d="M29.8548 19.9714C29.7321 19.6785 29.5949 19.5461 29.4399 19.4033C29.2848 19.2661 29.1332 19.1171 29.0178 18.7915C28.8628 18.3619 28.6968 18.2487 28.5488 18.1472C28.4696 18.0977 28.3937 18.049 28.3361 17.9618C28.2026 17.7612 28.2134 17.5656 28.2603 17.4822C28.2832 17.4611 28.306 17.44 28.3289 17.4189C28.3685 17.4147 28.3758 17.4599 28.3758 17.514C28.383 17.5827 28.3902 17.691 28.4768 17.7766C28.52 17.8169 28.5885 17.8527 28.6643 17.8939C28.8628 18.0048 29.1332 18.1558 29.2667 18.5563C29.3605 18.822 29.5336 18.9676 29.7212 19.1239C29.9017 19.2783 30.0963 19.44 30.2227 19.7301C30.2118 19.7364 30.201 19.7427 30.1902 19.749C30.0747 19.4634 29.8836 19.3008 29.6959 19.1499C29.5085 18.9937 29.3317 18.8436 29.2379 18.5686C29.1044 18.1844 28.8375 18.0343 28.6427 17.9225C28.5706 17.8786 28.5019 17.8428 28.4552 17.8034C28.3614 17.7105 28.3542 17.5968 28.347 17.5228C28.3397 17.4722 28.3397 17.4506 28.3216 17.4531C28.2459 17.5651 28.2351 17.7479 28.3613 17.9413C28.4227 18.0242 28.4947 18.0682 28.5706 18.1203C28.7149 18.2244 28.8916 18.3405 29.0467 18.7738C29.1513 19.0983 29.3136 19.2412 29.4579 19.3829C29.613 19.5219 29.7609 19.6554 29.8548 19.9714Z" fill="#7A361D"/>
<path d="M30.0422 19.7238C29.7537 19.201 29.2992 19.187 29.1368 18.6472C29.1728 19.1329 29.6743 19.2041 29.916 19.7979C29.9581 19.7732 30.0001 19.7485 30.0422 19.7238Z" fill="#7A361D"/>
<path d="M30.8251 21.2168C32.0311 22.0397 33.237 22.862 34.443 23.6959C34.443 23.6959 34.508 23.7453 34.5549 23.6948C34.5946 23.6402 34.5296 23.5907 34.5296 23.5907C33.4113 22.6478 32.2931 21.7152 31.1749 20.783C31.0583 20.9276 30.9417 21.0722 30.8251 21.2168Z" fill="#F1BD51"/>
<path d="M34.5152 23.7149C34.4611 23.7276 34.4358 23.7101 34.4358 23.7083C33.2286 22.876 32.0214 22.0553 30.8142 21.2339C30.8203 21.2252 30.8263 21.2166 30.8323 21.2079C32.0395 22.0293 33.2467 22.8501 34.4539 23.6824C34.4539 23.6824 34.508 23.7293 34.5405 23.6836C34.5693 23.6462 34.5224 23.6014 34.5224 23.6014C33.4042 22.6593 32.2859 21.7273 31.1677 20.7957C32.292 21.7186 33.4162 22.6419 34.5405 23.5756C34.5694 23.5995 34.6018 23.6513 34.5621 23.7003C34.5477 23.7072 34.5368 23.7098 34.5152 23.7149Z" fill="#7A361D"/>
<path d="M30.9116 21.1092C31.7401 21.6746 32.5685 22.24 33.397 22.8091C32.6287 22.1672 31.8604 21.5286 31.0921 20.8901C31.0319 20.9631 30.9717 21.0361 30.9116 21.1092Z" fill="#7A361D"/>
<path d="M31.7953 22.2653C32.037 22.8428 32.5673 22.8975 32.7477 23.4401C32.928 23.9787 33.3681 24.0636 33.5304 24.2106C33.7 24.3611 33.599 24.5783 33.6784 24.5648C33.7504 24.5493 33.8263 24.3039 33.6496 24.0522C33.4763 23.8015 33.2023 23.8712 32.9749 23.2208C32.7405 22.5633 32.3364 22.64 32.1634 22.0238C32.0407 22.1043 31.918 22.1848 31.7953 22.2653Z" fill="#F1BD51"/>
<path d="M33.6784 24.5775C33.6315 24.5888 33.6314 24.5383 33.6243 24.4859C33.6171 24.4173 33.6098 24.3108 33.5232 24.2233C33.4764 24.1858 33.4187 24.1474 33.3428 24.1097C33.1409 23.9996 32.8667 23.8477 32.7333 23.4455C32.6467 23.1779 32.4663 23.0324 32.2788 22.876C32.0984 22.7198 31.9035 22.5618 31.7809 22.2725C31.7905 22.2659 31.8002 22.2594 31.8099 22.2528C31.9325 22.5385 32.1164 22.6973 32.3039 22.8501C32.4916 23.01 32.6755 23.1546 32.7621 23.4314C32.8954 23.821 33.1697 23.9693 33.3609 24.0838C33.4366 24.1234 33.5052 24.1555 33.5448 24.2019C33.6422 24.2903 33.6495 24.404 33.6496 24.478C33.6568 24.5358 33.664 24.5503 33.6784 24.5469C33.7576 24.4322 33.7722 24.2503 33.6387 24.064C33.5773 23.9813 33.5123 23.9301 33.4366 23.8779C33.2815 23.7782 33.1156 23.6595 32.9605 23.2282C32.8487 22.9033 32.6936 22.7607 32.5384 22.6198C32.387 22.478 32.2391 22.3446 32.1525 22.0303C32.2644 22.324 32.405 22.4574 32.5673 22.5966C32.7115 22.7364 32.8739 22.8793 32.9893 23.2121C33.1373 23.638 33.3105 23.7514 33.4547 23.852C33.5304 23.906 33.6062 23.9526 33.664 24.0398C33.7938 24.2289 33.7973 24.4192 33.7432 24.5204C33.7216 24.5395 33.7 24.5585 33.6784 24.5775Z" fill="#7A361D"/>
<path d="M31.9648 22.2764C32.2426 22.8019 32.7008 22.8131 32.8632 23.3545C32.8269 22.8654 32.3329 22.7961 32.084 22.2076C32.0443 22.2305 32.0045 22.2534 31.9648 22.2764Z" fill="#7A361D"/>
<path d="M30.7711 20.9613C30.1999 22.6438 29.6287 24.3262 29.0575 26.0071C29.0575 26.0071 29.025 26.0997 29.0791 26.1085C29.137 26.1196 29.173 26.0261 29.173 26.0261C29.8572 24.3657 30.5414 22.7033 31.2256 21.0412C31.0741 21.0146 30.9226 20.988 30.7711 20.9613Z" fill="#F1BD51"/>
<path d="M29.1188 26.115C29.0178 26.1143 29.0323 26.0423 29.0467 26.0026C29.6166 24.3226 30.1865 22.6411 30.7564 20.9595C30.7661 20.9613 30.7757 20.9632 30.7854 20.9651C30.2142 22.6465 29.643 24.3277 29.0719 26.0074C29.0718 26.0093 29.0467 26.0873 29.0827 26.0949C29.108 26.0702 29.1332 26.0454 29.1585 26.0206C29.8438 24.3606 30.5292 22.6985 31.2146 21.0368C30.5377 22.7019 29.8607 24.3673 29.1838 26.0307C29.1838 26.0307 29.1657 26.0857 29.1188 26.115Z" fill="#7A361D"/>
<path d="M30.8936 20.98C30.498 22.135 30.1024 23.29 29.7068 24.4446C30.1757 23.3034 30.6446 22.1617 31.1136 21.02C31.0402 21.0066 30.9669 20.9933 30.8936 20.98Z" fill="#7A361D"/>
<path d="M29.963 22.5496C29.4651 23.1346 29.4941 23.6866 29.0249 24.1935C28.5561 24.7 28.5488 25.1813 28.4334 25.4309C28.3216 25.6796 28.1089 25.7178 28.134 25.7838C28.1593 25.85 28.4011 25.767 28.603 25.4461C28.8015 25.1258 28.6967 24.8971 29.2667 24.2757C29.833 23.6564 29.696 23.3111 30.2371 22.7604C30.1457 22.6902 30.0543 22.6199 29.963 22.5496Z" fill="#F1BD51"/>
<path d="M28.2134 25.8134C28.2025 25.816 28.1953 25.8178 28.1881 25.8176C28.1653 25.8093 28.1424 25.801 28.1196 25.7926C28.1015 25.7535 28.1484 25.7207 28.1953 25.6879C28.2603 25.6345 28.3613 25.5653 28.4226 25.4279C28.4551 25.357 28.4768 25.2724 28.5019 25.1762C28.5705 24.9161 28.6715 24.5584 29.0177 24.186C29.245 23.9363 29.3533 23.6718 29.4722 23.396C29.5805 23.1207 29.6996 22.8374 29.9484 22.5405C29.9556 22.5465 29.9629 22.5526 29.9702 22.5586C29.7284 22.8466 29.6058 23.1307 29.494 23.3995C29.3786 23.6837 29.2704 23.9463 29.0323 24.2006C28.6967 24.5667 28.6029 24.9174 28.5272 25.1792C28.5019 25.2808 28.4768 25.3662 28.4478 25.4345C28.3829 25.5836 28.2747 25.6618 28.2062 25.7088C28.1593 25.7451 28.1412 25.7603 28.1484 25.7748C28.2675 25.7824 28.4334 25.6832 28.5885 25.4404C28.657 25.3319 28.6895 25.2356 28.722 25.1323C28.7978 24.9192 28.8772 24.6837 29.2523 24.27C29.5336 23.9636 29.6383 23.7253 29.7465 23.4915C29.8548 23.2541 29.9558 23.0292 30.2298 22.7512C29.9774 23.042 29.8835 23.2633 29.7753 23.4952C29.6671 23.7327 29.5588 23.9737 29.2704 24.289C28.9023 24.6939 28.8231 24.9293 28.7508 25.1342C28.7148 25.2404 28.6823 25.3421 28.6138 25.4522C28.4768 25.671 28.3072 25.791 28.2134 25.8134Z" fill="#7A361D"/>
<path d="M29.9774 22.7228C29.5336 23.3143 29.5949 23.7668 29.1188 24.2537C29.5661 23.9252 29.5517 23.3947 30.0566 22.7973C30.0302 22.7724 30.0038 22.7476 29.9774 22.7228Z" fill="#7A361D"/>
<path d="M31.2255 21.0413C31.8002 19.3584 32.3749 17.6758 32.9496 15.9946C32.9496 15.9946 32.9821 15.9038 32.9208 15.8952C32.8667 15.883 32.8341 15.9757 32.8341 15.9757C32.1464 17.6363 31.4587 19.299 30.771 20.9614C30.9225 20.9881 31.074 21.0146 31.2255 21.0413Z" fill="#F1BD51"/>
<path d="M31.2471 21.0378C31.2363 21.0375 31.2254 21.0371 31.2146 21.0367C31.7858 19.3548 32.3569 17.673 32.928 15.9927C32.928 15.9927 32.9605 15.9163 32.9208 15.9078C32.8968 15.931 32.8728 15.9542 32.8488 15.9775C32.161 17.6388 31.4732 19.3021 30.7854 20.9651C31.4611 19.3015 32.1368 17.6375 32.8126 15.9755C32.8126 15.9755 32.8416 15.9163 32.8811 15.8904C32.91 15.8948 32.9388 15.8992 32.9677 15.9036C32.9821 15.9399 32.9605 15.9938 32.9605 15.9973C32.3894 17.6765 31.8183 19.3571 31.2471 21.0378Z" fill="#7A361D"/>
<path d="M31.1136 21.02C31.5092 19.8656 31.9049 18.7113 32.3005 17.5575C31.8315 18.6979 31.3626 19.839 30.8937 20.98C30.967 20.9934 31.0403 21.0067 31.1136 21.02Z" fill="#7A361D"/>
<path d="M32.0442 19.4521C32.5384 18.8664 32.5131 18.3116 32.9821 17.8083C33.451 17.3037 33.4547 16.8216 33.5629 16.5718C33.6856 16.3206 33.8983 16.2861 33.873 16.218C33.837 16.1527 33.6062 16.2332 33.4041 16.5522C33.195 16.8769 33.3104 17.1012 32.7405 17.7226C32.1705 18.3445 32.3039 18.6926 31.7629 19.2414C31.8567 19.3117 31.9504 19.3819 32.0442 19.4521Z" fill="#F1BD51"/>
<path d="M32.0514 19.4631C32.0442 19.4577 32.037 19.4523 32.0298 19.4468C32.2788 19.1552 32.3942 18.8745 32.5059 18.5985C32.6179 18.3188 32.7261 18.0561 32.9677 17.7992C33.3104 17.4351 33.4041 17.079 33.4763 16.8217C33.5051 16.7228 33.5232 16.6374 33.5557 16.5699C33.6243 16.4164 33.7325 16.3401 33.7938 16.2929C33.837 16.2573 33.8658 16.2397 33.8586 16.2252C33.7324 16.2209 33.5629 16.321 33.4187 16.5596C33.3427 16.668 33.3177 16.7678 33.2743 16.8703C33.2095 17.0827 33.1228 17.3233 32.7477 17.7353C32.4735 18.0382 32.358 18.2773 32.257 18.5093C32.1525 18.7459 32.0514 18.9724 31.7773 19.2486C32.0226 18.9578 32.1236 18.7349 32.2319 18.501C32.3329 18.2672 32.4446 18.0253 32.7261 17.717C33.1012 17.3105 33.1732 17.0768 33.2492 16.8691C33.2887 16.7586 33.3249 16.6579 33.3897 16.5485C33.5376 16.3127 33.7108 16.1882 33.8189 16.1824C33.8406 16.1922 33.8622 16.2021 33.8839 16.2119C33.8983 16.2499 33.8586 16.2809 33.8117 16.3156C33.7432 16.3626 33.6422 16.4338 33.5845 16.5739C33.5486 16.642 33.5304 16.7239 33.5051 16.822C33.4366 17.0856 33.3356 17.4451 32.9893 17.8175C32.7549 18.0672 32.6539 18.328 32.5313 18.6049C32.4193 18.8828 32.3039 19.167 32.0514 19.4631Z" fill="#7A361D"/>
<path d="M32.0298 19.2808C32.4735 18.6893 32.4122 18.2352 32.8883 17.7481C32.4374 18.0793 32.4518 18.6044 31.9432 19.2081C31.9721 19.2323 32.001 19.2565 32.0298 19.2808Z" fill="#7A361D"/>
<path d="M31.092 20.7512C29.5505 20.5569 28.009 20.3633 26.4675 20.1448C26.4675 20.1448 26.3846 20.1276 26.3593 20.1893C26.3412 20.253 26.4278 20.2675 26.4278 20.2675C27.9212 20.611 29.4146 20.9311 30.908 21.2507C30.9693 21.0842 31.0307 20.9177 31.092 20.7512Z" fill="#F1BD51"/>
<path d="M30.9115 21.239C29.4146 20.9287 27.9176 20.6179 26.4206 20.2836C26.3846 20.2737 26.3268 20.2474 26.3449 20.1855C26.3737 20.1266 26.4459 20.1191 26.4747 20.1288C28.0162 20.3465 29.5577 20.5396 31.0991 20.7332C31.0967 20.7434 31.0944 20.7536 31.092 20.7637C29.5505 20.5695 28.009 20.3758 26.4675 20.1574C26.4603 20.1591 26.3917 20.1459 26.3737 20.1914C26.3593 20.24 26.4278 20.255 26.4278 20.255C27.9224 20.5987 29.4169 20.9191 30.9115 21.239Z" fill="#7A361D"/>
<path d="M31.0451 20.878C29.9869 20.7416 28.9288 20.6052 27.8706 20.4609C28.8975 20.6884 29.9244 20.9083 30.9513 21.1282C30.9825 21.0448 31.0138 20.9614 31.0451 20.878Z" fill="#7A361D"/>
<path d="M29.7068 20.2781C29.2451 19.8893 28.6824 20.0579 28.2891 19.6811C27.8996 19.3074 27.4235 19.4107 27.1962 19.3538C26.9762 19.2914 26.9906 19.0752 26.9149 19.1163C26.8427 19.1565 26.8608 19.3942 27.1421 19.5323C27.4089 19.6738 27.6651 19.5037 28.1484 19.9546C28.6355 20.4101 29.0105 20.1824 29.4326 20.6191C29.524 20.5055 29.6154 20.3918 29.7068 20.2781Z" fill="#F1BD51"/>
<path d="M29.4399 20.6101C29.2054 20.4128 29.0105 20.3625 28.8014 20.3102C28.5885 20.2533 28.3757 20.1962 28.134 19.969C27.8202 19.6741 27.6038 19.6458 27.4163 19.6195C27.3152 19.6109 27.2286 19.5933 27.1276 19.5482C26.9293 19.4431 26.8463 19.2836 26.8607 19.1793C26.8764 19.1552 26.892 19.1311 26.9076 19.107C26.9472 19.08 26.9762 19.1129 26.9977 19.1583C27.0303 19.2158 27.0772 19.304 27.2033 19.3375C27.2574 19.3539 27.3369 19.3569 27.4235 19.36C27.6723 19.3737 28.015 19.3898 28.3 19.6713C28.4947 19.8555 28.7292 19.9057 28.9782 19.9609C29.2307 20.0116 29.4866 20.0686 29.7212 20.2639C29.7127 20.2731 29.7043 20.2824 29.6959 20.2916C29.465 20.1008 29.2126 20.0432 28.9708 19.9879C28.7076 19.9361 28.4768 19.8816 28.2747 19.6973C27.9934 19.4218 27.6578 19.406 27.4163 19.3942C27.3225 19.3891 27.2502 19.3825 27.1889 19.3699C27.0554 19.3307 27.0013 19.2404 26.969 19.1813C26.9472 19.1376 26.9364 19.1166 26.9148 19.1307C26.8823 19.2555 26.9399 19.4136 27.1492 19.5181C27.243 19.5628 27.3296 19.575 27.4235 19.589C27.6181 19.6136 27.8383 19.641 28.1593 19.943C28.3937 20.1704 28.6101 20.2228 28.8158 20.2778C29.0323 20.3337 29.2307 20.3867 29.4399 20.6101Z" fill="#7A361D"/>
<path d="M29.5336 20.3313C29.0467 20.0134 28.5778 20.1788 28.2062 19.7986C28.4261 20.1916 28.9564 20.0479 29.4399 20.4407C29.4711 20.4042 29.5023 20.3678 29.5336 20.3313Z" fill="#7A361D"/>
<path d="M30.9081 21.2508C32.4496 21.445 33.9911 21.6387 35.5325 21.8571C35.5325 21.8571 35.6119 21.8768 35.6408 21.8107C35.6659 21.7472 35.5794 21.7344 35.5794 21.7344C34.0837 21.3909 32.5878 21.0708 31.092 20.7512C31.0307 20.9177 30.9694 21.0842 30.9081 21.2508Z" fill="#F1BD51"/>
<path d="M35.5866 21.8716C35.5613 21.8774 35.547 21.8735 35.5253 21.8731C33.9838 21.6554 32.4424 21.4623 30.9009 21.2687C30.9045 21.2588 30.908 21.2489 30.9116 21.2389C32.4543 21.4323 33.997 21.6252 35.5397 21.8428C35.5397 21.8428 35.6045 21.855 35.6263 21.8084C35.6479 21.764 35.5722 21.7488 35.5722 21.7488C34.0776 21.4049 32.583 21.0845 31.0883 20.7646C32.5878 21.0743 34.0872 21.3845 35.5866 21.7183C35.6191 21.7271 35.6805 21.7547 35.6552 21.8127C35.6408 21.8485 35.6119 21.8658 35.5866 21.8716Z" fill="#7A361D"/>
<path d="M30.9513 21.1282C32.0095 21.2622 33.0676 21.3961 34.1257 21.5381C33.0989 21.313 32.072 21.0955 31.0451 20.878C31.0139 20.9614 30.9826 21.0448 30.9513 21.1282Z" fill="#7A361D"/>
<path d="M32.2932 21.7255C32.7621 22.1107 33.3249 21.944 33.7109 22.3207C34.1039 22.6972 34.5802 22.5902 34.8039 22.6481C35.0311 22.7105 35.0095 22.9284 35.0924 22.884C35.1574 22.8437 35.1356 22.6067 34.8615 22.467C34.5875 22.329 34.3422 22.5001 33.8587 22.0473C33.3681 21.5945 32.9893 21.8215 32.5745 21.3793C32.4807 21.4946 32.387 21.6101 32.2932 21.7255Z" fill="#F1BD51"/>
<path d="M35.078 22.905C35.042 22.9134 35.0239 22.8779 35.0023 22.8415C34.9698 22.7841 34.9228 22.6976 34.8039 22.6623C34.7424 22.646 34.6631 22.643 34.5693 22.6379C34.3276 22.6262 33.985 22.6101 33.7035 22.3313C33.5124 22.1462 33.2671 22.0951 33.0218 22.0426C32.7728 21.9873 32.5132 21.9314 32.286 21.7396C32.292 21.7309 32.298 21.7222 32.3039 21.7136C32.5313 21.9053 32.7875 21.9567 33.0362 22.012C33.2887 22.0647 33.5233 22.1165 33.7253 22.3044C34.0066 22.5797 34.3422 22.5939 34.5802 22.6084C34.6739 22.6133 34.7498 22.6174 34.8111 22.6337C34.9444 22.6692 34.9986 22.7612 35.031 22.8204C35.0563 22.8703 35.0636 22.8795 35.0852 22.8692C35.1177 22.7481 35.0636 22.5873 34.8543 22.481C34.7605 22.438 34.6739 22.424 34.573 22.4152C34.3817 22.3899 34.1652 22.3599 33.837 22.0613C33.6062 21.8351 33.3897 21.7789 33.1804 21.7265C32.9749 21.6679 32.7728 21.6158 32.5673 21.3899C32.7947 21.5871 32.9893 21.6374 33.2023 21.6941C33.4113 21.7465 33.6243 21.8054 33.8658 22.0346C34.1798 22.3295 34.3926 22.3566 34.5874 22.383C34.6885 22.3936 34.7749 22.404 34.8687 22.456C35.0924 22.5643 35.1502 22.7387 35.1356 22.825C35.1224 22.8491 35.1092 22.8732 35.0961 22.8973C35.0923 22.9 35.0852 22.9033 35.078 22.905Z" fill="#7A361D"/>
<path d="M32.4735 21.6689C32.9534 21.9923 33.4223 21.8195 33.7938 22.2087C33.5702 21.8147 33.0434 21.9523 32.5673 21.5632C32.5361 21.5984 32.5048 21.6337 32.4735 21.6689Z" fill="#7A361D"/>
<path d="M30.908 20.7961C29.4146 21.8478 27.9212 22.899 26.4278 23.9269C26.4278 23.9269 26.3412 23.9791 26.3593 24.0328C26.3846 24.0865 26.4675 24.0297 26.4675 24.0297C28.009 23.1046 29.5505 22.1549 31.092 21.2056C31.0307 21.0691 30.9693 20.9326 30.908 20.7961Z" fill="#F1BD51"/>
<path d="M26.4207 24.0675C26.3919 24.074 26.3594 24.0708 26.345 24.0416C26.3269 23.9934 26.3847 23.9368 26.4207 23.9142C27.9141 22.8864 29.4075 21.8352 30.9009 20.7836C30.9045 20.7917 30.9081 20.7998 30.9116 20.8079C29.417 21.8599 27.9225 22.9115 26.4279 23.9397C26.4279 23.9397 26.3594 23.9879 26.3738 24.0241C26.3919 24.0633 26.4604 24.0188 26.4676 24.0172C28.0091 23.0927 29.5506 22.1435 31.092 21.1948C29.553 22.1519 28.0139 23.1095 26.4748 24.0425C26.4604 24.0511 26.4388 24.0633 26.4207 24.0675Z" fill="#7A361D"/>
<path d="M30.9512 20.901C29.9243 21.6214 28.8975 22.3417 27.8706 23.0544C28.9287 22.41 29.9869 21.7575 31.045 21.1052C31.0138 21.0371 30.9825 20.969 30.9512 20.901Z" fill="#7A361D"/>
<path d="M29.3534 21.5836C28.6715 21.7236 28.2964 22.2324 27.6833 22.3235C27.0773 22.4126 26.7345 22.8233 26.5001 22.9564C26.2584 23.0912 26.1177 22.9572 26.0851 23.0384C26.0456 23.114 26.2403 23.2235 26.5722 23.0968C26.9077 22.9705 27.016 22.6903 27.7518 22.5742C28.4948 22.4589 28.6716 22.0499 29.3534 21.9768V21.5836Z" fill="#F1BD51"/>
<path d="M26.4459 23.1509C26.2474 23.1964 26.1248 23.1519 26.0851 23.105C26.0791 23.0811 26.0731 23.0572 26.0671 23.0333C26.0924 22.9862 26.1319 22.9935 26.1861 22.9991C26.2546 23.007 26.3593 23.0175 26.4854 22.947C26.5541 22.9115 26.6262 22.8534 26.7091 22.7892C26.9364 22.614 27.2358 22.375 27.6832 22.3072C27.9861 22.2662 28.235 22.1128 28.4875 21.9568C28.7436 21.8014 29.0033 21.6396 29.3533 21.569V21.5997C29.0249 21.665 28.7508 21.8304 28.4947 21.982C28.2422 22.1399 27.9935 22.2878 27.6832 22.3378C27.2502 22.4004 26.94 22.6385 26.72 22.8155C26.6406 22.8772 26.5649 22.9307 26.5 22.9708C26.3593 23.0464 26.2474 23.0393 26.1789 23.0296C26.1176 23.0219 26.1032 23.0251 26.0996 23.0368C26.161 23.1347 26.3124 23.1798 26.5721 23.0804C26.6803 23.0393 26.7741 22.9779 26.8607 22.9164C27.0482 22.7844 27.2575 22.6387 27.7517 22.5596C28.1196 22.505 28.3469 22.3747 28.5706 22.2487C28.7978 22.1202 29.0105 21.9985 29.3533 21.9604C28.9961 22.029 28.8014 22.15 28.5778 22.2758C28.3541 22.4036 28.1268 22.5302 27.7517 22.5903C27.2646 22.6658 27.0554 22.8152 26.8751 22.9401C26.7813 23.0052 26.6947 23.0666 26.5793 23.1131C26.5324 23.1256 26.4854 23.1418 26.4459 23.1509Z" fill="#7A361D"/>
<path d="M29.238 21.7413C28.5814 21.9347 28.2964 22.3746 27.6904 22.4444C28.1666 22.492 28.5273 22.0217 29.2308 21.8729C29.2332 21.829 29.2356 21.7852 29.238 21.7413Z" fill="#7A361D"/>
<path d="M31.092 21.2056C32.5878 20.1538 34.0837 19.1026 35.5794 18.0749C35.5794 18.0749 35.6659 18.0207 35.6408 17.967C35.612 17.9176 35.5325 17.972 35.5325 17.972C33.9911 18.8971 32.4496 19.8468 30.9081 20.7961C30.9694 20.9326 31.0307 21.0691 31.092 21.2056Z" fill="#F1BD51"/>
<path d="M31.0993 21.2202C31.0957 21.2121 31.092 21.2039 31.0884 21.1957C32.583 20.1438 34.0776 19.0922 35.5723 18.0641C35.5723 18.0641 35.648 18.0162 35.6264 17.9758C35.6046 17.9394 35.5398 17.9831 35.5398 17.9831C33.997 18.9083 32.4543 19.8584 30.9116 20.808C32.4495 19.8506 33.9874 18.8927 35.5254 17.9594C35.5614 17.9349 35.6336 17.9093 35.6552 17.9567C35.6805 18.0087 35.6192 18.0622 35.5867 18.0878C34.0909 19.1161 32.5951 20.1679 31.0993 21.2202Z" fill="#7A361D"/>
<path d="M31.0451 21.1052C32.072 20.3824 33.0989 19.6597 34.1257 18.9445C33.0676 19.5914 32.0095 20.2463 30.9513 20.901C30.9826 20.9691 31.0139 21.0372 31.0451 21.1052Z" fill="#7A361D"/>
<path d="M32.6539 20.4167C33.3284 20.2801 33.7109 19.7661 34.3204 19.6795C34.93 19.5896 35.2728 19.1753 35.5037 19.0447C35.7452 18.9153 35.886 19.0423 35.922 18.9637C35.9545 18.8898 35.7669 18.7768 35.4243 18.9042C35.0924 19.0351 34.9914 19.3101 34.2484 19.426C33.5052 19.543 33.3284 19.9485 32.6539 20.0217C32.6539 20.1534 32.6539 20.2851 32.6539 20.4167Z" fill="#F1BD51"/>
<path d="M32.7115 20.4189C32.6936 20.4232 32.6756 20.4276 32.6539 20.4329C32.6539 20.4226 32.6539 20.4124 32.6539 20.4022C32.9893 20.3315 33.2492 20.1749 33.5052 20.018C33.765 19.8583 34.0138 19.7104 34.3204 19.6648C34.757 19.5996 35.0636 19.3625 35.2835 19.1871C35.3664 19.1211 35.4387 19.0666 35.5037 19.0301C35.6479 18.9501 35.7525 18.9642 35.8282 18.9723C35.8788 18.9805 35.9004 18.9794 35.9004 18.9631C35.8463 18.869 35.6877 18.8236 35.4315 18.9169C35.316 18.9615 35.2294 19.0194 35.1428 19.0845C34.9482 19.218 34.7424 19.3631 34.2484 19.4403C33.884 19.496 33.6496 19.6279 33.4366 19.753C33.2095 19.8798 32.993 20.0005 32.6539 20.0397C32.993 19.9736 33.2023 19.8509 33.4222 19.7241C33.6422 19.6009 33.8731 19.4714 34.2484 19.4096C34.7352 19.3342 34.9445 19.1882 35.1249 19.0633C35.2187 18.9947 35.3123 18.9298 35.4243 18.8897C35.6804 18.7911 35.8607 18.8241 35.922 18.8969C35.9256 18.9213 35.9293 18.9457 35.9329 18.9701C35.9148 19.0139 35.8679 19.0101 35.8138 19.0044C35.7453 18.9965 35.6479 18.9826 35.5109 19.0573C35.4531 19.0923 35.3774 19.1457 35.298 19.211C35.0708 19.3914 34.7677 19.6277 34.3132 19.6955C34.0138 19.7374 33.7722 19.8889 33.5161 20.046C33.2743 20.1924 33.029 20.3419 32.7115 20.4189Z" fill="#7A361D"/>
<path d="M32.7694 20.2551C33.4223 20.0682 33.711 19.6272 34.306 19.5565C33.8371 19.5071 33.4691 19.9845 32.7729 20.1316C32.7717 20.1728 32.7706 20.2139 32.7694 20.2551Z" fill="#7A361D"/>
<path d="M31.2255 20.8501C30.5413 19.5237 29.8571 18.1974 29.1728 16.8692C29.1728 16.8692 29.1369 16.7932 29.079 16.8325C29.0249 16.8691 29.0574 16.9441 29.0574 16.9441C29.6286 18.348 30.1998 19.7504 30.771 21.1526C30.9225 21.0518 31.074 20.951 31.2255 20.8501Z" fill="#F1BD51"/>
<path d="M30.7855 21.1418C30.2059 19.7459 29.6263 18.3497 29.0468 16.952C29.0468 16.9485 29.025 16.905 29.0396 16.8637C29.066 16.8453 29.0924 16.8269 29.1188 16.8085C29.1657 16.8133 29.1838 16.8612 29.1838 16.8612C29.8692 18.1891 30.5546 19.5149 31.24 20.841C31.2316 20.8473 31.2231 20.8537 31.2147 20.86C30.516 19.5148 29.8174 18.1699 29.1188 16.8229C29.1068 16.83 29.0948 16.837 29.0828 16.8441C29.0792 16.8739 29.0755 16.9037 29.0719 16.9334C29.6431 18.3372 30.2143 19.7396 30.7855 21.1418Z" fill="#7A361D"/>
<path d="M31.1136 20.926C30.6447 20.0147 30.1757 19.1034 29.7068 18.1914C30.1024 19.1525 30.498 20.1131 30.8936 21.0737C30.9669 21.0245 31.0402 20.9753 31.1136 20.926Z" fill="#7A361D"/>
<path d="M30.8251 19.3954C30.8502 18.7055 30.4319 18.4328 30.4823 17.8126C30.5364 17.1897 30.201 16.9273 30.1216 16.7105C30.0494 16.4901 30.2083 16.3142 30.1432 16.2939C30.0675 16.2799 29.9161 16.5027 29.9702 16.8251C30.0206 17.1519 30.2767 17.1866 30.2154 17.9464C30.1576 18.7054 30.5183 18.7886 30.4319 19.4897C30.563 19.4583 30.694 19.4268 30.8251 19.3954Z" fill="#F1BD51"/>
<path d="M30.8396 19.3918C30.8287 19.3944 30.8179 19.397 30.8071 19.3997C30.8178 19.0596 30.7205 18.822 30.6303 18.5897C30.533 18.352 30.4392 18.1316 30.4643 17.8151C30.504 17.3636 30.3382 17.1049 30.2155 16.9147C30.1686 16.8397 30.1289 16.7772 30.1073 16.723C30.0676 16.5866 30.1037 16.4696 30.1289 16.3912C30.1433 16.3354 30.1505 16.3137 30.1361 16.31C30.0207 16.396 29.9484 16.5742 29.981 16.8187C30.0026 16.927 30.0423 17.0039 30.082 17.0881C30.1686 17.2545 30.2697 17.4389 30.2299 17.9428C30.2011 18.3178 30.2768 18.5266 30.3453 18.7282C30.4176 18.9376 30.4896 19.1312 30.4427 19.4871C30.4571 19.1426 30.3886 18.9501 30.3166 18.7441C30.2443 18.54 30.1686 18.3294 30.1974 17.9489C30.2371 17.4524 30.1433 17.268 30.0567 17.1068C30.0135 17.0237 29.9702 16.9458 29.9558 16.8339C29.9161 16.5911 29.9882 16.3931 30.0676 16.3142C30.0952 16.3021 30.1229 16.2898 30.1505 16.2777C30.1902 16.2879 30.1758 16.3365 30.1577 16.395C30.1289 16.4706 30.0964 16.5812 30.1361 16.7032C30.1577 16.7611 30.2011 16.8209 30.2443 16.8932C30.3634 17.0859 30.5365 17.352 30.4968 17.8109C30.4715 18.1183 30.5581 18.3405 30.6591 18.5738C30.753 18.8052 30.8503 19.0463 30.8396 19.3918Z" fill="#7A361D"/>
<path d="M30.6916 19.3125C30.659 18.664 30.2911 18.4653 30.356 17.8525C30.1973 18.3621 30.5833 18.6355 30.5652 19.3379C30.6073 19.3294 30.6495 19.321 30.6916 19.3125Z" fill="#7A361D"/>
<path d="M30.771 21.1526C31.4587 22.4787 32.1464 23.8046 32.8341 25.1326C32.8341 25.1326 32.8666 25.2095 32.9208 25.1712C32.9821 25.1346 32.9496 25.0577 32.9496 25.0577C32.3749 23.6541 31.8002 22.252 31.2255 20.8501C31.074 20.9509 30.9225 21.0517 30.771 21.1526Z" fill="#F1BD51"/>
<path d="M32.928 25.1856C32.8416 25.1886 32.8126 25.1451 32.8126 25.1451C32.1272 23.816 31.4419 22.4889 30.7565 21.1616C30.7661 21.155 30.7758 21.1485 30.7854 21.1419C31.4732 22.4675 32.161 23.7927 32.8488 25.12C32.8488 25.12 32.8812 25.1882 32.9209 25.1586C32.9606 25.1327 32.928 25.0685 32.928 25.0667C32.3569 23.6635 31.7858 22.2617 31.2147 20.8601C31.7966 22.2554 32.3786 23.6509 32.9606 25.0479C32.9749 25.0806 32.9893 25.1457 32.928 25.1856Z" fill="#7A361D"/>
<path d="M30.8937 21.0737C31.3626 21.9857 31.8315 22.8977 32.3005 23.8103C31.9049 22.8486 31.5092 21.8873 31.1136 20.926C31.0403 20.9752 30.967 21.0245 30.8937 21.0737Z" fill="#7A361D"/>
<path d="M31.1821 22.6047C31.1533 23.2936 31.5753 23.5672 31.5212 24.19C31.467 24.8094 31.8026 25.0699 31.8746 25.2957C31.9576 25.5119 31.788 25.6922 31.864 25.7078C31.9325 25.7254 32.0839 25.4973 32.037 25.1732C31.9829 24.8528 31.7304 24.8135 31.788 24.0543C31.8494 23.3 31.4887 23.2115 31.5753 22.5138C31.4442 22.5441 31.3131 22.5744 31.1821 22.6047Z" fill="#F1BD51"/>
<path d="M31.8566 25.7258C31.8099 25.7156 31.8315 25.6616 31.8494 25.6103C31.8712 25.5346 31.9107 25.4223 31.864 25.3002C31.8422 25.2406 31.8027 25.18 31.7558 25.1067C31.6367 24.914 31.467 24.6487 31.4996 24.1918C31.5284 23.8835 31.4417 23.6647 31.3481 23.4299C31.2543 23.1948 31.1461 22.9563 31.1605 22.61C31.1713 22.6079 31.1822 22.6059 31.193 22.6038C31.1821 22.9438 31.2794 23.1833 31.3733 23.4128C31.4743 23.6461 31.5609 23.8718 31.5356 24.1864C31.4959 24.6328 31.6619 24.8969 31.7809 25.0896C31.8315 25.1602 31.8712 25.2227 31.8891 25.285C31.936 25.4161 31.9035 25.5304 31.8747 25.6132C31.8566 25.6682 31.8565 25.6861 31.8712 25.6935C31.9757 25.6084 32.0586 25.4275 32.0189 25.1794C32.0045 25.0728 31.9648 24.9959 31.9181 24.9137C31.8386 24.7473 31.7377 24.5627 31.7774 24.0569C31.8027 23.6828 31.7304 23.4769 31.6547 23.2736C31.5825 23.0657 31.514 22.8697 31.5572 22.5147C31.5428 22.8591 31.615 23.0524 31.6872 23.2566C31.7558 23.4618 31.8387 23.6724 31.8027 24.0526C31.763 24.5494 31.864 24.7339 31.9432 24.8967C31.9901 24.979 32.0298 25.0576 32.0514 25.1696C32.0839 25.4125 32.0117 25.6068 31.9325 25.691C31.9072 25.7026 31.8819 25.7142 31.8566 25.7258Z" fill="#7A361D"/>
<path d="M31.312 22.6901C31.3482 23.336 31.7161 23.5363 31.6439 24.1509C31.8027 23.6377 31.4202 23.3669 31.4418 22.6674C31.3986 22.675 31.3553 22.6826 31.312 22.6901Z" fill="#7A361D"/>
<path d="M31.0018 18.9929C32.1127 18.7203 33.0074 19.4 33.0074 20.5076C33.0074 21.6202 32.1127 22.7351 31.0018 23.0077C29.8871 23.2812 28.9889 22.6007 28.9889 21.4877C28.9889 20.3805 29.8871 19.2664 31.0018 18.9929Z" fill="#F1BD51"/>
<path d="M31.0019 19.0073C29.9017 19.2772 29.0034 20.3896 29.0034 21.4842C29.0034 22.5881 29.9017 23.265 31.0019 22.9951C32.1056 22.7243 32.993 21.6146 32.993 20.5111C32.993 19.4161 32.1057 18.7365 31.0019 19.0073ZM31.0019 23.0239C29.8836 23.2983 28.9782 22.6105 28.9783 21.4903C28.9782 20.3794 29.8836 19.251 31.0019 18.9766C32.1165 18.7032 33.029 19.391 33.029 20.5024C33.029 21.6221 32.1165 22.7504 31.0019 23.0239Z" fill="#7A361D"/>
<path d="M32.2716 20.2573C31.9107 20.0384 31.4671 20.0985 31.2146 20.3965C31.0379 20.6744 31.0523 20.9575 31.2687 21.2003C31.2471 21.2056 31.2146 21.2298 31.2002 21.2424C31.045 20.9864 31.0198 20.686 31.1208 20.3853C31.4671 20.0227 31.9325 19.8782 32.2716 20.2573Z" fill="#7A361D"/>
<path d="M31.7161 20.2989C31.5069 20.3501 31.4672 20.4084 31.3733 20.5073C31.2795 20.6094 31.2328 20.603 31.2147 20.6253C31.2003 20.6416 31.2147 20.6867 31.2472 20.6624C31.2795 20.6366 31.341 20.5944 31.4347 20.4922C31.5212 20.3951 31.6223 20.3704 31.7161 20.3475C31.9902 20.2804 32.1453 20.4735 32.1778 20.4512C32.2066 20.4279 32.019 20.2248 31.7161 20.2989Z" fill="#7A361D"/>
<path d="M32.0623 20.4794C31.8712 20.3095 31.4959 20.3853 31.3409 20.6702C31.3614 20.6651 31.3818 20.6602 31.4022 20.6551C31.5572 20.3703 31.9325 20.3831 31.9576 20.4887V20.5193C31.9925 20.506 32.0274 20.4927 32.0623 20.4794Z" fill="#7A361D"/>
<path d="M31.6836 20.4153C31.7558 20.3976 31.8243 20.4457 31.8243 20.5214C31.8243 20.5973 31.7558 20.677 31.6836 20.6947C31.6079 20.7132 31.5428 20.6661 31.5428 20.5902C31.5428 20.5145 31.6079 20.4338 31.6836 20.4153Z" fill="#7A361D"/>
<path d="M31.3409 20.6702C31.4959 20.7694 31.8387 20.7035 32.0623 20.4794C32.0274 20.4825 31.9925 20.4856 31.9576 20.4887C31.8027 20.6944 31.5572 20.74 31.4022 20.6551V20.6245C31.3818 20.6397 31.3614 20.6549 31.3409 20.6702Z" fill="#7A361D"/>
<path d="M32.084 20.5498C31.8243 20.8171 31.5573 20.8608 31.4023 20.8103C31.2472 20.7544 31.2472 20.7256 31.2795 20.7177C31.3085 20.7106 31.341 20.7315 31.4671 20.7621C31.5898 20.7916 31.7774 20.7456 32.084 20.5498Z" fill="#7A361D"/>
<path d="M31.3264 21.2024C31.3733 21.2035 31.4023 21.2523 31.3805 21.3046C31.3626 21.3575 31.3085 21.3979 31.2688 21.3879C31.2255 21.3876 31.2075 21.3595 31.2002 21.3234C31.1858 21.3557 31.1209 21.4655 31.0019 21.4946C30.9922 21.497 30.9826 21.4994 30.9729 21.5017C30.9826 21.515 30.9922 21.5283 31.0019 21.5415C31.0342 21.5336 31.1208 21.5124 31.1858 21.4495C31.2327 21.5013 31.312 21.4981 31.3805 21.4398C31.4418 21.3778 31.4636 21.2861 31.413 21.2335C31.3949 21.2072 31.3626 21.197 31.3264 21.2024Z" fill="#7A361D"/>
<path d="M31.5068 21.802C31.3733 21.7427 31.3085 21.6197 31.1534 21.6577C31.1208 21.6657 31.0595 21.6969 31.0019 21.7435C30.9923 21.7459 30.9826 21.7483 30.9729 21.7506C30.9826 21.7627 30.9922 21.7747 31.0019 21.7868C31.0595 21.7726 31.1534 21.674 31.2688 21.707C31.3733 21.7427 31.4346 21.789 31.5068 21.802Z" fill="#7A361D"/>
<path d="M31.4671 21.8117C31.1533 21.7965 31.092 21.8729 31.0019 21.8949C30.9922 21.8973 30.9826 21.8997 30.9729 21.902C30.9826 21.9214 30.9922 21.9406 31.0019 21.96C31.1208 21.9308 31.1858 21.8211 31.4671 21.8117Z" fill="#7A361D"/>
<path d="M31.5068 21.8021C31.1749 21.8527 31.2795 22.0292 31.0019 22.0972C30.9923 22.0995 30.9826 22.1019 30.9729 22.1042C30.9826 22.1175 30.9922 22.1308 31.0019 22.144C31.341 22.061 31.1858 21.915 31.5068 21.8021Z" fill="#7A361D"/>
<path d="M31.2795 22.3519C31.2795 22.2004 31.1534 22.1068 31.0019 22.1439C30.8503 22.1811 30.7204 22.3373 30.7205 22.4888C30.7564 22.3285 30.9116 22.1949 31.0667 22.1966C31.175 22.1935 31.2544 22.2533 31.2795 22.3519Z" fill="#7A361D"/>
<path d="M29.7322 20.8781C30.0891 20.4843 30.5365 20.3263 30.7855 20.5015C30.9657 20.6919 30.9441 20.9838 30.7385 21.3301C30.753 21.3265 30.7855 21.3348 30.7999 21.3403C30.9513 21.0092 30.9873 20.6938 30.8793 20.4443C30.5365 20.2505 30.0748 20.3329 29.7322 20.8781Z" fill="#7A361D"/>
<path d="M30.2912 20.6478C30.4895 20.5993 30.5365 20.6364 30.6302 20.6893C30.7204 20.7465 30.7638 20.7179 30.7854 20.7306C30.7998 20.7398 30.7854 20.7919 30.7529 20.7836C30.7204 20.7737 30.6628 20.7606 30.5652 20.7052C30.4751 20.6514 30.3813 20.6744 30.2912 20.6964C30.0134 20.7643 29.8619 21.0321 29.8257 21.0265C29.7935 21.0181 29.9809 20.7237 30.2912 20.6478Z" fill="#7A361D"/>
<path d="M29.934 21C30.1361 20.7342 30.5039 20.6282 30.6627 20.8362C30.6411 20.8415 30.6194 20.8468 30.5977 20.8521C30.4426 20.6432 30.0747 20.8377 30.0494 20.9556V20.9862C30.0109 20.9908 29.9724 20.9954 29.934 21Z" fill="#7A361D"/>
<path d="M30.3237 20.748C30.2443 20.7674 30.183 20.8472 30.183 20.923C30.183 20.9988 30.2443 21.0468 30.3237 21.0274C30.3958 21.0098 30.4571 20.9318 30.4571 20.8559C30.4571 20.7802 30.3958 20.7304 30.3237 20.748Z" fill="#7A361D"/>
<path d="M30.6627 20.8363C30.5039 21.0125 30.1685 21.1124 29.934 21.0001C29.9724 20.9853 30.0109 20.9705 30.0494 20.9557C30.1973 21.0875 30.4426 21.0131 30.5977 20.8522V20.8216C30.6194 20.8265 30.6411 20.8314 30.6627 20.8363Z" fill="#7A361D"/>
<path d="M29.9161 21.0803C30.183 21.219 30.4427 21.1339 30.5978 21.0074C30.753 20.8757 30.753 20.8468 30.7205 20.8548C30.6917 20.8618 30.6629 20.8977 30.5365 20.9901C30.4102 21.0805 30.2299 21.1247 29.9161 21.0803Z" fill="#7A361D"/>
<path d="M30.6772 21.3613C30.6303 21.3854 30.605 21.4475 30.6266 21.4891C30.6375 21.535 30.6916 21.549 30.7385 21.5177C30.771 21.4988 30.7998 21.4593 30.7998 21.4214C30.8142 21.4467 30.8792 21.5246 31.0019 21.4946L31.0342 21.4867C31.0234 21.5049 31.0127 21.5232 31.0019 21.5415C30.9729 21.5486 30.8792 21.5715 30.8142 21.5405C30.7711 21.6143 30.6843 21.6517 30.6266 21.6243C30.5581 21.5942 30.5437 21.5113 30.5834 21.4365C30.6122 21.3989 30.6447 21.3728 30.6772 21.3613Z" fill="#7A361D"/>
<path d="M30.4895 22.051C30.6302 21.9246 30.6916 21.7707 30.8467 21.7327C30.8792 21.7248 30.9405 21.726 31.0018 21.7435L31.0341 21.7356C31.0234 21.7526 31.0126 21.7697 31.0018 21.7867C30.9405 21.8017 30.8466 21.749 30.7384 21.8368C30.6303 21.9246 30.5652 22.0019 30.4895 22.051Z" fill="#7A361D"/>
<path d="M30.5365 22.0396C30.8468 21.8716 30.9081 21.9179 31.0019 21.8949L31.0342 21.887L31.0019 21.96C30.8793 21.99 30.8143 21.9121 30.5365 22.0396Z" fill="#7A361D"/>
<path d="M30.4895 22.0511C30.8323 21.9366 30.7203 22.166 31.0018 22.0971C31.0126 22.0945 31.0234 22.0918 31.0341 22.0892C31.0234 22.1075 31.0126 22.1257 31.0018 22.144C30.6627 22.227 30.8142 22.006 30.4895 22.0511Z" fill="#7A361D"/>
<path d="M30.7205 22.4888C30.7205 22.3373 30.8503 22.181 31.0019 22.1439C31.1534 22.1068 31.2795 22.2004 31.2795 22.3519C31.2472 22.2083 31.092 22.1506 30.9332 22.2293C30.8324 22.2774 30.7457 22.3779 30.7205 22.4888Z" fill="#7A361D"/>
</svg>
