<svg width="311" height="172" viewBox="0 0 311 172" fill="none" xmlns="http://www.w3.org/2000/svg">
<path d="M143.37 80.4373C148.729 79.5013 151.271 75.3787 154.231 71.7253C154.11 71.5893 153.989 71.452 153.867 71.3147C150.369 74.3547 146.869 77.396 143.37 80.4373ZM118.913 116.048C115.825 119.153 113.183 122.613 110.325 126.552C115.393 124.371 117.533 120.513 118.913 116.048ZM165.463 45.1987C163.302 48.2227 161.794 51.1253 160.231 54.6653C166.322 51.1107 166.902 50.0493 165.463 45.1987ZM134.277 90.4627C134.143 90.3413 134.01 90.2187 133.877 90.096C131.233 91.7427 128.697 93.5413 126.269 95.5C125.598 96.04 125.291 96.6307 125.51 97.5267C125.839 98.8787 126.063 100.255 126.399 101.957C129.141 97.9573 131.709 94.2107 134.277 90.4627ZM143.902 76.2973C140.555 76.928 131.825 82.2973 129.526 85.1613C131.89 84.3293 134.029 83.272 136.286 82.852C140.174 82.1267 141.959 79.2827 143.902 76.2973ZM134.773 85.392C130.254 87.2827 125.737 89.1747 121.063 91.1307C121.933 92.1613 122.637 92.9493 123.286 93.78C123.643 94.2387 123.935 94.4947 124.466 94.0053C127.745 90.984 131.527 88.5907 134.773 85.392ZM125.843 84.7213C126.467 84.3213 127.101 83.9347 127.715 83.52C132.713 80.14 137.594 76.512 143.154 74.132C145.341 73.1947 146.805 71.8787 148.047 70.052C149.245 68.2933 150.749 66.7307 151.495 64.636C142.398 70.648 133.982 77.4813 125.843 84.7213ZM152.614 77.2333C160.507 74.3467 168.698 72.664 176.627 69.96C173.647 66.044 168.667 64.8947 163.933 66.8787C158.927 68.976 155.849 73.176 152.614 77.2333ZM90.7421 159.077C99.9235 152.452 114.375 132.477 114.329 126.597C111.501 128.715 108.238 130.241 106.289 133.211C102.283 139.312 98.4221 145.508 94.5768 151.711C93.2115 153.913 91.7715 156.103 90.7421 159.077ZM110.597 91.8067C110.562 91.628 110.527 91.448 110.493 91.268C108.818 91.4053 107.13 91.456 105.47 91.6933C96.9901 92.908 88.8541 95.4453 80.7821 98.204C62.6821 104.391 45.2128 112.139 27.6568 119.672C27.3048 119.824 26.8542 119.889 26.6275 120.683C54.7781 111.112 82.8408 101.904 110.597 91.8067ZM72.8741 150.256C73.4888 149.948 74.1128 149.659 74.7155 149.329C85.2648 143.575 95.1261 136.727 105.166 130.161C105.57 129.896 105.937 129.532 106.233 129.145C111.629 122.1 116.902 114.959 122.453 108.037C124.467 105.527 124.215 103.164 123.393 100.504C122.946 99.0573 122.411 98.9293 121.247 99.9893C109.75 110.468 98.0301 120.709 87.3741 132.072C82.0795 137.716 77.0595 143.591 72.8741 150.256ZM119.938 120.711C132.901 111.952 146.07 103.647 158.478 94.244C163.807 90.2053 169.053 86.06 173.477 80.996C174.979 79.276 176.326 77.4453 177.034 75.2347C177.319 74.344 177.633 73.232 177.027 72.5813C176.522 72.0387 175.626 72.84 174.903 73.044C174.289 73.2173 173.691 73.4493 173.082 73.6413C163.197 76.756 153.311 79.8693 143.425 82.9813C142.463 83.284 141.666 83.7147 141.059 84.628C136.142 92.02 131.114 99.3413 126.643 107.019C124.086 111.412 121.63 115.863 119.938 120.711ZM88.8528 161.432C88.2381 160.307 88.2915 159.161 88.6421 157.959C89.5688 154.779 91.2048 151.956 93.0462 149.251C95.6462 145.433 98.3368 141.677 100.949 137.869C101.699 136.776 102.317 135.593 102.691 134.119C102.103 134.523 101.506 134.912 100.93 135.333C93.1208 141.033 85.3181 146.745 76.8141 151.405C74.6968 152.565 72.5435 153.676 70.1608 154.208C69.2795 154.404 68.2115 154.784 67.5835 153.907C67.0208 153.121 67.6821 152.269 68.0821 151.541C69.4955 148.977 71.2861 146.669 73.1675 144.447C87.5741 127.425 103.026 111.444 120.397 97.3933C121.571 96.4427 121.415 95.804 120.623 94.804C118.511 92.136 118.409 92.0347 115.414 93.636C106.918 98.1787 99.2635 103.988 91.5501 109.692C74.5115 122.295 58.0755 135.679 41.2702 148.584C38.8608 150.435 36.4728 152.331 33.4955 153.996C33.7102 152.227 34.8181 151.425 35.7035 150.561C40.7555 145.641 46.2915 141.284 51.8395 136.951C69.8861 122.856 88.3782 109.36 107.058 96.1187C107.677 95.6813 108.458 95.4013 108.966 94.2693C106.311 95.168 103.911 95.9533 101.53 96.7933C75.4141 106.011 49.4595 115.688 23.1661 124.403C16.8968 126.48 10.6261 128.567 4.17415 130.035C3.01015 130.299 1.84482 130.573 0.679487 130.409C0.46082 129.908 0.819484 129.847 1.03548 129.743C26.0835 117.544 51.4821 106.171 77.9461 97.328C88.6035 93.7653 99.3528 90.3533 110.574 89.2987C115.434 88.8427 119.061 86.8547 122.715 84.0267C133.229 75.888 143.585 67.5427 154.351 59.7333C155.139 59.1613 155.598 58.4067 156.054 57.6013C158.823 52.7227 161.442 47.7493 164.789 43.224C165.486 42.2827 166.233 40.692 167.375 41.008C168.529 41.328 168.221 43.0533 168.355 44.2147C168.491 45.3907 168.606 46.5693 168.777 48.1933C174.301 43.484 179.191 38.716 184.067 33.3427C182.467 33.256 181.53 33.864 180.595 34.376C178.166 35.7067 175.789 37.1333 173.341 38.428C172.655 38.7893 171.647 39.464 171.058 38.468C170.546 37.6027 171.553 37.0707 172.123 36.652C176.515 33.424 181.457 31.2693 186.551 29.4293C187.707 29.012 188.027 29.5533 187.802 30.556C187.453 32.1173 186.557 33.4133 185.578 34.64C180.527 40.9667 174.314 46.0773 168.119 51.1973C165.051 53.7333 161.91 56.1853 158.733 58.5827C156.381 60.3587 155.086 62.916 153.511 65.2613C152.066 67.4147 150.798 69.688 149.463 71.8893C191.015 48.592 232.41 25.24 272.729 0C272.085 1.57867 270.797 2.55066 269.545 3.51199C260.509 10.4533 250.794 16.38 241.067 22.272C218.27 36.0787 195.11 49.252 171.51 61.6467C170.955 61.9373 170.415 62.256 169.281 62.892C173.801 63.192 176.955 64.9267 179.286 68.1293C179.875 68.94 180.725 68.3853 181.45 68.1987C200.161 63.3867 218.858 58.5187 237.585 53.7653C251.974 50.1133 266.342 46.3627 280.923 43.5173C281.885 43.3307 282.843 43.0947 284.077 43.4293C283.179 44.6093 281.957 44.972 280.815 45.4027C273.019 48.344 264.91 50.204 256.854 52.2293C232.191 58.428 207.453 64.3187 182.873 70.8467C181.493 71.2133 180.747 71.448 180.871 73.276C181.075 76.288 179.509 78.8747 177.81 81.284C173.826 86.9293 168.631 91.364 163.239 95.568C151.098 105.031 137.973 113.007 124.637 120.625C120.47 123.004 117.39 125.717 115.327 130.352C111.359 139.264 105.549 147.152 99.1955 154.583C96.9301 157.229 94.4261 159.623 91.4155 161.432H88.8528Z" fill="#231F20"/>
<path d="M148.381 127.515C148.381 127.757 148.222 128.028 147.905 128.327C147.793 128.513 147.485 128.859 146.981 129.363C146.925 129.419 146.421 129.736 145.469 130.315C144.759 130.763 144.321 131.108 144.153 131.351C144.134 131.407 143.863 131.789 143.341 132.499C142.426 133.731 141.586 135.103 140.821 136.615C140.391 137.361 139.962 138.117 139.533 138.883C138.879 140.059 138.553 140.796 138.553 141.095C138.553 141.151 138.571 141.179 138.609 141.179C138.758 141.179 139.99 140.348 142.305 138.687C142.435 138.593 142.547 138.547 142.641 138.547C142.734 138.547 142.781 138.584 142.781 138.659C142.781 138.752 142.697 138.883 142.529 139.051C142.267 139.256 141.885 139.564 141.381 139.975C140.895 140.385 140.429 140.777 139.981 141.151C139.421 141.599 138.935 141.925 138.525 142.131C138.301 142.224 138.133 142.401 138.021 142.663C137.834 142.999 137.573 143.493 137.237 144.147C136.975 144.725 136.462 145.677 135.697 147.003C134.054 149.485 132.057 151.399 129.705 152.743C128.491 153.433 127.661 153.779 127.213 153.779C126.578 153.779 126.261 153.555 126.261 153.107C126.261 152.864 126.419 152.537 126.737 152.127C126.979 151.735 127.353 151.156 127.857 150.391C128.958 148.729 130.731 146.919 133.177 144.959C134.147 144.212 135.183 143.353 136.285 142.383C136.527 141.916 136.91 141.197 137.433 140.227C138.179 138.92 138.721 137.977 139.057 137.399C139.691 136.353 140.289 135.448 140.849 134.683C141.166 134.235 141.586 133.647 142.109 132.919C142.314 132.62 142.641 132.191 143.089 131.631C143.35 131.369 143.481 131.192 143.481 131.099C143.481 131.061 143.462 131.043 143.425 131.043C143.051 131.061 142.501 130.987 141.773 130.819C141.567 130.707 141.353 130.455 141.129 130.063C140.923 129.671 140.774 129.475 140.681 129.475C140.625 129.475 140.541 129.531 140.429 129.643C139.999 130.053 139.383 130.679 138.581 131.519C138.413 131.817 138.142 132.228 137.769 132.751C137.414 133.124 137.087 133.507 136.789 133.899C136.658 134.123 136.527 134.347 136.397 134.571C136.191 134.907 136.033 135.075 135.921 135.075C135.697 135.075 135.585 134.953 135.585 134.711C135.585 134.58 135.865 134.151 136.425 133.423C137.657 131.836 138.571 130.585 139.169 129.671C139.579 129.167 140.13 128.42 140.821 127.431C141.026 127.057 141.194 126.777 141.325 126.591C141.586 126.236 141.81 126.012 141.997 125.919C142.426 125.695 142.753 125.583 142.977 125.583C143.406 125.583 143.621 125.881 143.621 126.479C143.621 127.113 143.35 127.692 142.809 128.215C142.267 128.737 141.997 128.98 141.997 128.943C141.997 129.335 142.09 129.624 142.277 129.811C142.463 129.997 142.911 130.091 143.621 130.091C143.975 130.091 144.489 129.699 145.161 128.915C145.907 128.037 146.523 127.524 147.009 127.375C147.083 127.356 147.214 127.291 147.401 127.179C147.587 127.048 147.737 126.983 147.849 126.983C147.979 126.983 148.101 127.039 148.213 127.151C148.325 127.263 148.381 127.384 148.381 127.515ZM135.557 144.091C135.557 144.072 135.547 144.063 135.529 144.063C135.454 144.063 134.969 144.427 134.073 145.155C133.457 145.64 132.701 146.331 131.805 147.227C130.666 148.365 129.929 149.084 129.593 149.383C129.35 149.607 129.098 149.924 128.837 150.335C128.519 150.801 128.361 151.165 128.361 151.427C128.361 151.539 128.445 151.595 128.613 151.595C128.594 151.595 128.911 151.511 129.565 151.343C130.143 151.193 130.554 150.979 130.797 150.699C130.871 150.624 131.002 150.512 131.189 150.363C131.375 150.213 131.655 149.915 132.029 149.467C132.402 149.037 133.046 148.16 133.961 146.835C135.025 145.304 135.557 144.389 135.557 144.091Z" fill="#231F20"/>
<path d="M150.563 138.631C150.563 138.724 150.479 138.845 150.311 138.995C149.9 139.405 149.2 140.012 148.211 140.815C147.072 141.729 146.325 142.243 145.971 142.355C145.616 142.467 145.336 142.523 145.131 142.523C144.795 142.523 144.543 142.373 144.375 142.075C144.225 141.795 144.123 141.655 144.067 141.655C143.955 141.655 143.619 141.832 143.059 142.187C142.685 142.448 142.247 142.579 141.743 142.579C140.884 142.579 140.455 142.345 140.455 141.879C140.455 141.132 140.585 140.6 140.847 140.283C140.977 140.096 141.192 139.835 141.491 139.499C141.883 139.107 142.517 138.556 143.395 137.847C144.72 136.988 145.588 136.559 145.999 136.559C146.391 136.559 146.643 136.699 146.755 136.979C146.885 137.259 146.997 137.399 147.091 137.399C147.221 137.399 147.361 137.315 147.511 137.147C147.679 136.96 147.875 136.867 148.099 136.867C148.397 136.867 148.547 136.969 148.547 137.175C148.547 137.324 148.099 137.921 147.203 138.967C146.325 140.012 145.887 140.684 145.887 140.983C145.887 141.244 145.971 141.375 146.139 141.375C146.512 141.375 147.287 140.899 148.463 139.947C149.657 138.976 150.311 138.491 150.423 138.491C150.516 138.491 150.563 138.537 150.563 138.631ZM146.223 137.707C146.223 137.464 146.111 137.343 145.887 137.343C145.308 137.343 144.589 137.781 143.731 138.659C142.872 139.517 142.443 140.255 142.443 140.871C142.443 141.188 142.592 141.347 142.891 141.347C143.152 141.347 143.525 141.179 144.011 140.843C144.496 140.507 144.841 140.217 145.047 139.975C145.831 138.985 146.223 138.229 146.223 137.707Z" fill="#231F20"/>
<path d="M160.122 138.631C160.122 138.78 159.814 139.107 159.198 139.611C158.712 140.003 158.311 140.301 157.994 140.507C157.564 140.768 157.135 140.899 156.706 140.899C156.314 140.899 155.94 140.777 155.586 140.535C155.231 140.273 155.054 140.143 155.054 140.143C155.016 140.143 154.55 140.516 153.654 141.263C152.758 142.009 152.179 142.429 151.918 142.523C151.675 142.635 151.386 142.691 151.05 142.691C150.844 142.691 150.658 142.663 150.49 142.607C150.116 142.495 149.911 142.429 149.874 142.411C149.706 142.317 149.622 142.14 149.622 141.879C149.622 141.599 149.734 141.207 149.958 140.703C150.182 140.255 150.406 139.909 150.63 139.667C150.798 139.48 151.022 139.181 151.302 138.771C151.488 138.547 151.675 138.285 151.862 137.987C151.843 137.949 151.815 137.921 151.778 137.903C151.722 137.903 151.302 138.229 150.518 138.883C149.734 139.517 149.239 139.835 149.034 139.835C148.94 139.835 148.894 139.797 148.894 139.723C148.894 139.667 148.94 139.583 149.034 139.471C149.052 139.452 149.258 139.265 149.65 138.911C150.06 138.537 150.536 138.117 151.078 137.651C151.171 137.613 151.33 137.464 151.554 137.203C151.796 136.941 152.067 136.783 152.366 136.727C152.683 136.652 152.926 136.615 153.094 136.615C153.56 136.615 153.794 136.792 153.794 137.147C153.794 137.296 153.476 137.959 152.842 139.135C152.804 139.191 152.534 139.555 152.03 140.227C151.638 140.731 151.442 141.104 151.442 141.347C151.442 141.552 151.544 141.655 151.75 141.655C151.974 141.655 152.328 141.477 152.814 141.123C153.206 140.843 153.514 140.591 153.738 140.367C153.98 140.143 154.316 139.816 154.746 139.387C154.783 139.331 154.82 139.116 154.858 138.743C154.914 138.369 155.026 138.052 155.194 137.791C155.735 137.025 156.248 136.643 156.734 136.643C157.182 136.643 157.406 136.839 157.406 137.231C157.406 137.455 157.219 137.753 156.846 138.127C156.472 138.5 156.286 138.883 156.286 139.275C156.286 139.499 156.36 139.713 156.51 139.919C156.659 140.105 156.846 140.199 157.07 140.199C157.443 140.199 158.003 139.919 158.75 139.359C159.496 138.78 159.907 138.491 159.982 138.491C160.075 138.491 160.122 138.537 160.122 138.631Z" fill="#231F20"/>
<path d="M168.153 128.271C168.153 128.644 167.975 129.036 167.621 129.447C167.266 129.839 166.893 130.035 166.501 130.035C166.146 130.035 165.969 129.839 165.969 129.447C165.969 129.335 166.09 129.036 166.333 128.551C166.482 128.252 166.594 128.075 166.669 128.019C166.799 127.888 167.005 127.823 167.285 127.823C167.863 127.823 168.153 127.972 168.153 128.271ZM164.681 138.631C164.681 138.817 163.766 139.648 161.937 141.123C161.022 141.851 160.303 142.317 159.781 142.523C159.258 142.728 158.857 142.831 158.577 142.831C158.353 142.831 158.129 142.728 157.905 142.523C157.699 142.336 157.597 142.121 157.597 141.879C157.597 141.692 157.671 141.477 157.821 141.235C157.839 141.197 158.11 140.777 158.633 139.975C158.763 139.695 159.015 139.312 159.389 138.827C159.482 138.752 159.827 138.304 160.425 137.483C160.91 136.811 161.283 136.475 161.545 136.475C161.955 136.475 162.161 136.661 162.161 137.035C162.161 137.24 162.067 137.445 161.881 137.651C161.507 138.08 161.087 138.649 160.621 139.359C160.042 140.236 159.753 140.833 159.753 141.151C159.753 141.319 159.902 141.403 160.201 141.403C160.537 141.403 161.871 140.488 164.205 138.659C164.317 138.547 164.429 138.491 164.541 138.491C164.634 138.491 164.681 138.537 164.681 138.631Z" fill="#231F20"/>
<path d="M170.338 138.631C170.338 138.743 170.104 139.004 169.638 139.415C168.462 140.441 167.491 141.179 166.726 141.627C165.568 142.299 164.42 142.635 163.282 142.635C162.33 142.635 161.854 142.159 161.854 141.207C161.854 140.908 162.068 140.507 162.498 140.003C162.927 139.48 163.375 138.957 163.842 138.435C164.308 137.893 164.84 137.455 165.438 137.119C166.296 136.633 166.856 136.391 167.118 136.391C167.435 136.391 167.594 136.577 167.594 136.951C167.594 137.735 167.155 138.453 166.278 139.107C165.419 139.741 164.7 140.152 164.122 140.339C163.991 140.395 163.916 140.432 163.898 140.451C163.898 140.451 163.879 140.516 163.842 140.647C163.692 141.02 163.618 141.244 163.618 141.319C163.618 141.617 163.879 141.767 164.402 141.767C164.98 141.767 165.68 141.552 166.502 141.123C166.987 140.861 168.098 140.04 169.834 138.659C169.964 138.547 170.076 138.491 170.17 138.491C170.282 138.491 170.338 138.537 170.338 138.631ZM166.446 137.707C166.446 137.669 166.436 137.641 166.418 137.623C166.38 137.623 166.343 137.623 166.306 137.623C166.063 137.623 165.69 137.856 165.186 138.323C164.682 138.771 164.43 139.107 164.43 139.331C164.43 139.387 164.467 139.415 164.542 139.415C164.691 139.415 164.971 139.275 165.382 138.995C165.811 138.715 166.082 138.5 166.194 138.351C166.362 138.071 166.446 137.856 166.446 137.707Z" fill="#231F20"/>
<path d="M177.091 138.631C177.091 138.873 176.092 139.741 174.095 141.235C173.609 141.589 172.863 142.056 171.855 142.635C171.407 142.821 171.071 142.915 170.847 142.915C170.511 142.915 170.175 142.747 169.839 142.411C169.521 142.075 169.363 141.739 169.363 141.403C169.363 140.955 169.671 140.46 170.287 139.919C170.903 139.377 171.211 139.097 171.211 139.079C171.211 138.78 171.08 138.631 170.819 138.631C170.651 138.631 170.231 138.911 169.559 139.471C168.905 140.012 168.467 140.283 168.243 140.283C168.093 140.283 168.019 140.236 168.019 140.143C168.019 140.161 168.495 139.76 169.447 138.939C170.268 138.248 170.819 137.669 171.099 137.203C171.211 136.904 171.332 136.605 171.463 136.307C171.631 135.933 171.864 135.747 172.163 135.747C172.293 135.747 172.452 135.831 172.639 135.999C172.825 136.148 172.919 136.288 172.919 136.419C172.919 136.587 172.816 136.792 172.611 137.035C172.405 137.277 172.303 137.464 172.303 137.595C172.303 137.8 172.461 137.968 172.779 138.099C173.096 138.211 173.255 138.388 173.255 138.631C173.255 138.724 173.199 138.808 173.087 138.883C172.881 139.032 172.583 139.349 172.191 139.835C171.799 140.301 171.575 140.637 171.519 140.843C171.481 141.029 171.463 141.179 171.463 141.291C171.463 141.589 171.593 141.739 171.855 141.739C172.508 141.739 174.085 140.712 176.587 138.659C176.717 138.547 176.829 138.491 176.923 138.491C177.035 138.491 177.091 138.537 177.091 138.631Z" fill="#231F20"/>
<path d="M201.161 127.263C201.161 127.636 200.993 128.177 200.657 128.887C200.041 130.193 199.453 131.183 198.893 131.855C198.24 132.639 197.157 133.516 195.645 134.487C195.029 134.897 194.142 135.448 192.985 136.139C192.593 136.4 191.996 136.755 191.193 137.203C190.409 137.576 189.886 137.959 189.625 138.351C189.364 138.724 189.102 139.219 188.841 139.835C188.542 140.544 188.393 141.076 188.393 141.431C188.393 141.617 188.486 141.711 188.673 141.711C189.14 141.711 189.952 141.328 191.109 140.563C192.528 139.611 193.62 138.528 194.385 137.315C194.534 137.016 194.768 136.671 195.085 136.279C195.272 136.204 195.542 136.167 195.897 136.167C196.438 136.167 196.709 136.297 196.709 136.559C196.709 136.708 196.634 136.876 196.485 137.063C196.056 137.529 195.43 138.267 194.609 139.275C193.396 140.955 192.789 141.944 192.789 142.243C192.789 142.261 192.798 142.271 192.817 142.271C192.929 142.271 193.097 142.187 193.321 142.019C193.974 141.608 194.936 140.973 196.205 140.115C196.634 139.797 197.26 139.312 198.081 138.659C198.212 138.547 198.324 138.491 198.417 138.491C198.529 138.491 198.585 138.537 198.585 138.631C198.585 138.911 197.624 139.769 195.701 141.207C195.346 141.449 194.833 141.804 194.161 142.271C193.433 142.756 192.565 143.409 191.557 144.231C191.296 144.567 191.034 145.024 190.773 145.603C190.269 146.797 189.606 147.973 188.785 149.131C188.113 150.083 187.45 151.025 186.797 151.959C185.92 153.153 185.192 154.021 184.613 154.563C184.109 155.029 183.465 155.515 182.681 156.019C181.692 156.653 180.973 156.971 180.525 156.971C179.984 156.971 179.713 156.784 179.713 156.411C179.713 156.243 179.806 156.028 179.993 155.767C181.169 153.937 182.13 152.593 182.877 151.735C183.456 151.044 184.38 150.045 185.649 148.739C186.937 147.451 187.88 146.461 188.477 145.771C188.794 145.323 189.205 144.828 189.709 144.287C190.082 144.081 190.418 143.708 190.717 143.167C191.146 142.383 191.361 141.972 191.361 141.935C191.361 141.86 191.333 141.823 191.277 141.823C191.221 141.823 191.025 141.944 190.689 142.187C189.98 142.709 189.205 142.98 188.365 142.999H188.057C187.012 143.017 186.34 142.625 186.041 141.823C185.873 141.337 185.789 140.945 185.789 140.647C185.789 140.441 185.854 140.208 185.985 139.947C186.041 139.704 186.237 139.349 186.573 138.883C186.946 138.528 187.254 138.192 187.497 137.875C187.534 137.819 187.758 137.436 188.169 136.727C189.588 134.244 191.828 131.659 194.889 128.971C197.185 126.955 198.874 125.947 199.957 125.947C200.218 125.947 200.48 126.096 200.741 126.395C201.021 126.693 201.161 126.983 201.161 127.263ZM200.013 127.403C200.013 127.197 199.882 127.095 199.621 127.095C199.36 127.095 199.061 127.169 198.725 127.319C198.408 127.449 198.109 127.58 197.829 127.711C197.194 127.953 196.625 128.429 196.121 129.139C195.916 129.437 195.598 129.792 195.169 130.203C194.814 130.539 194.46 130.884 194.105 131.239C193.769 131.593 193.162 132.443 192.285 133.787C191.128 135.579 190.549 136.54 190.549 136.671C190.549 136.708 190.586 136.727 190.661 136.727C190.754 136.727 190.941 136.671 191.221 136.559C191.93 136.26 192.901 135.681 194.133 134.823C195.496 133.889 196.336 133.161 196.653 132.639C196.765 132.452 197.026 132.191 197.437 131.855C197.792 131.556 198.025 131.276 198.137 131.015C198.286 130.679 198.529 130.24 198.865 129.699C199.257 129.083 199.518 128.653 199.649 128.411C199.892 127.944 200.013 127.608 200.013 127.403ZM187.805 147.647C187.805 147.572 187.777 147.535 187.721 147.535C187.684 147.535 187.628 147.553 187.553 147.591C187.497 147.647 187.068 148.104 186.265 148.963C185.668 149.616 184.753 150.577 183.521 151.847C182.905 152.444 182.438 153.004 182.121 153.527C182.028 153.751 181.86 154.077 181.617 154.507C181.318 154.955 181.169 155.225 181.169 155.319C181.169 155.393 181.206 155.431 181.281 155.431C181.505 155.431 182.093 155.076 183.045 154.367C183.922 153.713 184.501 153.144 184.781 152.659C185.192 152.043 185.78 151.1 186.545 149.831C187.385 148.356 187.805 147.628 187.805 147.647Z" fill="#231F20"/>
<path d="M204.162 138.631C204.162 138.743 203.929 139.004 203.462 139.415C202.286 140.441 201.315 141.179 200.55 141.627C199.393 142.299 198.245 142.635 197.106 142.635C196.154 142.635 195.678 142.159 195.678 141.207C195.678 140.908 195.893 140.507 196.322 140.003C196.751 139.48 197.199 138.957 197.666 138.435C198.133 137.893 198.665 137.455 199.262 137.119C200.121 136.633 200.681 136.391 200.942 136.391C201.259 136.391 201.418 136.577 201.418 136.951C201.418 137.735 200.979 138.453 200.102 139.107C199.243 139.741 198.525 140.152 197.946 140.339C197.815 140.395 197.741 140.432 197.722 140.451C197.722 140.451 197.703 140.516 197.666 140.647C197.517 141.02 197.442 141.244 197.442 141.319C197.442 141.617 197.703 141.767 198.226 141.767C198.805 141.767 199.505 141.552 200.326 141.123C200.811 140.861 201.922 140.04 203.658 138.659C203.789 138.547 203.901 138.491 203.994 138.491C204.106 138.491 204.162 138.537 204.162 138.631ZM200.27 137.707C200.27 137.669 200.261 137.641 200.242 137.623C200.205 137.623 200.167 137.623 200.13 137.623C199.887 137.623 199.514 137.856 199.01 138.323C198.506 138.771 198.254 139.107 198.254 139.331C198.254 139.387 198.291 139.415 198.366 139.415C198.515 139.415 198.795 139.275 199.206 138.995C199.635 138.715 199.906 138.5 200.018 138.351C200.186 138.071 200.27 137.856 200.27 137.707Z" fill="#231F20"/>
<path d="M210.915 138.631C210.915 138.873 209.916 139.741 207.919 141.235C207.433 141.589 206.687 142.056 205.679 142.635C205.231 142.821 204.895 142.915 204.671 142.915C204.335 142.915 203.999 142.747 203.663 142.411C203.345 142.075 203.187 141.739 203.187 141.403C203.187 140.955 203.495 140.46 204.111 139.919C204.727 139.377 205.035 139.097 205.035 139.079C205.035 138.78 204.904 138.631 204.643 138.631C204.475 138.631 204.055 138.911 203.383 139.471C202.729 140.012 202.291 140.283 202.067 140.283C201.918 140.283 201.843 140.236 201.843 140.143C201.843 140.161 202.319 139.76 203.271 138.939C204.092 138.248 204.643 137.669 204.923 137.203C205.035 136.904 205.156 136.605 205.287 136.307C205.455 135.933 205.688 135.747 205.987 135.747C206.117 135.747 206.276 135.831 206.463 135.999C206.649 136.148 206.743 136.288 206.743 136.419C206.743 136.587 206.64 136.792 206.435 137.035C206.229 137.277 206.127 137.464 206.127 137.595C206.127 137.8 206.285 137.968 206.603 138.099C206.92 138.211 207.079 138.388 207.079 138.631C207.079 138.724 207.023 138.808 206.911 138.883C206.705 139.032 206.407 139.349 206.015 139.835C205.623 140.301 205.399 140.637 205.343 140.843C205.306 141.029 205.287 141.179 205.287 141.291C205.287 141.589 205.417 141.739 205.679 141.739C206.332 141.739 207.909 140.712 210.411 138.659C210.541 138.547 210.653 138.491 210.747 138.491C210.859 138.491 210.915 138.537 210.915 138.631Z" fill="#231F20"/>
<path d="M218.594 138.631C218.594 138.724 218.51 138.845 218.342 138.995C217.931 139.405 217.231 140.012 216.242 140.815C215.103 141.729 214.357 142.243 214.002 142.355C213.647 142.467 213.367 142.523 213.162 142.523C212.826 142.523 212.574 142.373 212.406 142.075C212.257 141.795 212.154 141.655 212.098 141.655C211.986 141.655 211.65 141.832 211.09 142.187C210.717 142.448 210.278 142.579 209.774 142.579C208.915 142.579 208.486 142.345 208.486 141.879C208.486 141.132 208.617 140.6 208.878 140.283C209.009 140.096 209.223 139.835 209.522 139.499C209.914 139.107 210.549 138.556 211.426 137.847C212.751 136.988 213.619 136.559 214.03 136.559C214.422 136.559 214.674 136.699 214.786 136.979C214.917 137.259 215.029 137.399 215.122 137.399C215.253 137.399 215.393 137.315 215.542 137.147C215.71 136.96 215.906 136.867 216.13 136.867C216.429 136.867 216.578 136.969 216.578 137.175C216.578 137.324 216.13 137.921 215.234 138.967C214.357 140.012 213.918 140.684 213.918 140.983C213.918 141.244 214.002 141.375 214.17 141.375C214.543 141.375 215.318 140.899 216.494 139.947C217.689 138.976 218.342 138.491 218.454 138.491C218.547 138.491 218.594 138.537 218.594 138.631ZM214.254 137.707C214.254 137.464 214.142 137.343 213.918 137.343C213.339 137.343 212.621 137.781 211.762 138.659C210.903 139.517 210.474 140.255 210.474 140.871C210.474 141.188 210.623 141.347 210.922 141.347C211.183 141.347 211.557 141.179 212.042 140.843C212.527 140.507 212.873 140.217 213.078 139.975C213.862 138.985 214.254 138.229 214.254 137.707Z" fill="#231F20"/>
<path d="M225.325 138.631C225.325 138.873 224.326 139.741 222.329 141.235C221.844 141.589 221.097 142.056 220.089 142.635C219.641 142.821 219.305 142.915 219.081 142.915C218.745 142.915 218.409 142.747 218.073 142.411C217.756 142.075 217.597 141.739 217.597 141.403C217.597 140.955 217.905 140.46 218.521 139.919C219.137 139.377 219.445 139.097 219.445 139.079C219.445 138.78 219.314 138.631 219.053 138.631C218.885 138.631 218.465 138.911 217.793 139.471C217.14 140.012 216.701 140.283 216.477 140.283C216.328 140.283 216.253 140.236 216.253 140.143C216.253 140.161 216.729 139.76 217.681 138.939C218.502 138.248 219.053 137.669 219.333 137.203C219.445 136.904 219.566 136.605 219.697 136.307C219.865 135.933 220.098 135.747 220.397 135.747C220.528 135.747 220.686 135.831 220.873 135.999C221.06 136.148 221.153 136.288 221.153 136.419C221.153 136.587 221.05 136.792 220.845 137.035C220.64 137.277 220.537 137.464 220.537 137.595C220.537 137.8 220.696 137.968 221.013 138.099C221.33 138.211 221.489 138.388 221.489 138.631C221.489 138.724 221.433 138.808 221.321 138.883C221.116 139.032 220.817 139.349 220.425 139.835C220.033 140.301 219.809 140.637 219.753 140.843C219.716 141.029 219.697 141.179 219.697 141.291C219.697 141.589 219.828 141.739 220.089 141.739C220.742 141.739 222.32 140.712 224.821 138.659C224.952 138.547 225.064 138.491 225.157 138.491C225.269 138.491 225.325 138.537 225.325 138.631Z" fill="#231F20"/>
<path d="M239.024 126.535C239.024 126.665 238.894 126.927 238.632 127.319C238.334 127.767 238.156 128.056 238.1 128.187C237.708 128.803 237.232 129.549 236.672 130.427C236.299 131.155 235.739 132.069 234.992 133.171C234.32 133.861 233.91 134.393 233.76 134.767C233.63 135.14 233.088 135.84 232.136 136.867C231.726 137.315 231.222 137.949 230.624 138.771C229.878 139.779 229.504 140.432 229.504 140.731C229.504 141.216 229.71 141.459 230.12 141.459C230.494 141.459 231.306 140.964 232.556 139.975C233.826 138.985 234.507 138.491 234.6 138.491C234.694 138.491 234.74 138.537 234.74 138.631C234.74 138.817 234.096 139.424 232.808 140.451C231.595 141.44 230.811 142.009 230.456 142.159C229.896 142.42 229.411 142.551 229 142.551C228.72 142.551 228.468 142.467 228.244 142.299C228.02 142.131 227.908 141.916 227.908 141.655C227.908 141.599 227.89 141.571 227.852 141.571C227.815 141.571 227.432 141.767 226.704 142.159C225.995 142.551 225.37 142.747 224.828 142.747C223.615 142.747 223.008 142.345 223.008 141.543C223.008 140.983 223.456 140.161 224.352 139.079C224.8 138.519 225.519 137.921 226.508 137.287C227.591 136.596 228.431 136.251 229.028 136.251C229.252 136.251 229.504 136.381 229.784 136.643C230.064 136.904 230.242 137.035 230.316 137.035C230.447 137.035 230.578 136.951 230.708 136.783C230.708 136.764 230.942 136.381 231.408 135.635C232.379 134.216 233.779 132.069 235.608 129.195C235.832 128.803 236.066 128.401 236.308 127.991C236.551 127.58 236.822 127.235 237.12 126.955C237.96 126.171 238.436 125.779 238.548 125.779C238.866 125.779 239.024 126.031 239.024 126.535ZM229.588 137.819C229.588 137.669 229.514 137.52 229.364 137.371C229.215 137.203 229.066 137.119 228.916 137.119C228.748 137.119 228.459 137.212 228.048 137.399C227.712 137.548 227.264 137.949 226.704 138.603C226.536 138.864 226.303 139.256 226.004 139.779C225.538 140.563 225.304 141.029 225.304 141.179C225.304 141.328 225.36 141.477 225.472 141.627C225.584 141.757 225.715 141.823 225.864 141.823C226.107 141.823 226.788 141.375 227.908 140.479C228.3 140.18 228.59 139.863 228.776 139.527C228.982 139.172 229.178 138.808 229.364 138.435C229.514 138.192 229.588 137.987 229.588 137.819Z" fill="#231F20"/>
<path d="M242.13 138.631C242.13 138.817 241.719 139.228 240.898 139.863C240.151 140.441 239.638 140.777 239.358 140.871C239.227 140.908 239.087 140.927 238.938 140.927C238.602 140.927 238.303 140.843 238.042 140.675C237.799 140.507 237.696 140.423 237.734 140.423C237.622 140.423 237.463 140.572 237.258 140.871C236.996 141.3 236.53 141.739 235.858 142.187C235.186 142.635 234.607 142.859 234.122 142.859C232.927 142.859 232.33 142.364 232.33 141.375C232.33 140.945 232.89 140.105 234.01 138.855C234.719 138.071 235.494 137.483 236.334 137.091C236.595 136.941 236.866 136.792 237.146 136.643C237.444 136.475 237.706 136.391 237.93 136.391C238.172 136.391 238.359 136.475 238.49 136.643C238.919 137.24 239.134 137.595 239.134 137.707C239.134 137.744 239.124 137.819 239.106 137.931C239.087 138.024 239.078 138.099 239.078 138.155C239.078 138.211 239.087 138.295 239.106 138.407C239.124 138.519 239.134 138.603 239.134 138.659C239.134 138.901 239.05 139.116 238.882 139.303C238.732 139.489 238.658 139.62 238.658 139.695C238.658 139.993 238.854 140.143 239.246 140.143C239.6 140.143 240.114 139.872 240.786 139.331C241.476 138.771 241.868 138.491 241.962 138.491C242.074 138.491 242.13 138.537 242.13 138.631ZM237.734 137.679C237.734 137.529 237.612 137.455 237.37 137.455C237.276 137.455 237.146 137.483 236.978 137.539C236.679 137.651 236.212 138.155 235.578 139.051C234.943 139.947 234.626 140.591 234.626 140.983C234.626 141.393 234.812 141.599 235.186 141.599C235.522 141.599 235.942 141.347 236.446 140.843C236.875 140.413 237.183 140.012 237.37 139.639C237.444 139.471 237.482 139.284 237.482 139.079C237.482 139.023 237.472 138.948 237.454 138.855C237.435 138.743 237.426 138.659 237.426 138.603C237.426 138.379 237.472 138.173 237.566 137.987C237.678 137.8 237.734 137.697 237.734 137.679Z" fill="#231F20"/>
<path d="M272.93 127.179C272.93 127.795 272.528 128.457 271.726 129.167C271.315 129.503 270.904 129.848 270.494 130.203C269.99 130.688 269.663 131.089 269.514 131.407C269.122 132.34 268.534 133.731 267.75 135.579C267.526 136.064 267.068 136.979 266.378 138.323C266.172 138.696 265.911 139.247 265.594 139.975C265.538 140.18 265.51 140.339 265.51 140.451C265.51 140.6 265.566 140.675 265.678 140.675C265.79 140.675 266.004 140.628 266.322 140.535C266.658 140.423 266.891 140.367 267.022 140.367C267.339 140.367 267.806 140.311 268.422 140.199C268.982 140.031 269.532 139.741 270.074 139.331C270.82 138.771 271.212 138.491 271.25 138.491C271.362 138.491 271.418 138.537 271.418 138.631C271.418 138.743 271.184 139.004 270.718 139.415C270.531 139.564 270.27 139.788 269.934 140.087C269.542 140.385 269.038 140.619 268.422 140.787C268.011 140.936 267.386 141.151 266.546 141.431C266.228 141.673 265.771 141.944 265.174 142.243C265.099 142.261 264.94 142.308 264.698 142.383C264.474 142.457 264.287 142.495 264.138 142.495C263.839 142.495 263.568 142.401 263.326 142.215C263.102 142.047 262.99 141.823 262.99 141.543C262.99 141.337 263.064 141.141 263.214 140.955C263.512 140.525 263.811 139.947 264.11 139.219C264.539 138.173 265.006 137.268 265.51 136.503C266.182 135.513 266.518 134.86 266.518 134.543C266.518 134.468 266.49 134.431 266.434 134.431C266.378 134.431 266.266 134.505 266.098 134.655C265.631 135.121 264.903 135.784 263.914 136.643C263.316 137.053 262.719 137.464 262.122 137.875C261.356 138.397 260.806 138.845 260.47 139.219C260.134 139.573 259.639 140.105 258.986 140.815C258.855 140.927 258.696 141.188 258.51 141.599C258.342 142.009 258.015 142.551 257.53 143.223C257.138 143.764 256.802 144.035 256.522 144.035C255.943 144.035 255.654 143.82 255.654 143.391C255.654 143.167 255.85 142.709 256.242 142.019C256.522 141.477 256.97 140.684 257.586 139.639C258.127 138.817 258.538 138.061 258.818 137.371C258.967 136.867 259.266 136.167 259.714 135.271C259.994 134.879 260.134 134.561 260.134 134.319C260.134 134.207 260.106 134.151 260.05 134.151C259.956 134.151 259.704 134.393 259.294 134.879C257.427 137.044 255.271 139.116 252.826 141.095C252.452 141.431 251.864 141.888 251.062 142.467C250.408 142.859 249.68 143.055 248.878 143.055C248.635 143.055 248.346 143.036 248.01 142.999C247.692 142.961 247.366 142.915 247.03 142.859C246.712 142.803 246.451 142.607 246.246 142.271C245.947 141.804 245.798 141.337 245.798 140.871C245.798 140.049 246.283 139.48 247.254 139.163C247.328 139.144 247.515 139.06 247.814 138.911C248.038 138.799 248.224 138.743 248.374 138.743C249.195 138.743 249.606 139.088 249.606 139.779C249.606 140.283 249.419 140.74 249.046 141.151C248.691 141.543 248.514 141.739 248.514 141.739C248.514 142.037 248.822 142.187 249.438 142.187C249.568 142.187 249.69 142.177 249.802 142.159C250.922 142.047 253.684 139.657 258.09 134.991C258.5 134.543 259.023 133.955 259.658 133.227C259.975 132.835 260.498 132.275 261.226 131.547C261.524 131.304 262.047 130.716 262.794 129.783C263.26 129.241 263.942 128.429 264.838 127.347C265.286 126.693 265.836 125.993 266.49 125.247C266.658 125.191 266.816 125.163 266.966 125.163C267.227 125.163 267.358 125.256 267.358 125.443C267.358 125.611 267.302 125.816 267.19 126.059C267.096 126.283 267.05 126.423 267.05 126.479C267.05 126.721 266.462 127.739 265.286 129.531C264.147 131.248 263.4 132.303 263.046 132.695C262.878 132.881 262.663 133.217 262.402 133.703C262.196 134.057 261.907 134.58 261.534 135.271C261.347 135.812 261.039 136.605 260.61 137.651C260.516 137.856 260.47 137.996 260.47 138.071C260.47 138.108 260.488 138.127 260.526 138.127C260.563 138.127 260.647 138.08 260.778 137.987C261.711 137.296 262.644 136.596 263.578 135.887C264.642 135.065 265.51 134.291 266.182 133.563C266.667 133.059 267.516 131.92 268.73 130.147C268.972 129.773 269.514 129.092 270.354 128.103C270.615 127.748 270.867 127.393 271.11 127.039C271.446 126.665 271.828 126.479 272.258 126.479C272.706 126.479 272.93 126.712 272.93 127.179Z" fill="#231F20"/>
<path d="M279.414 128.271C279.414 128.644 279.237 129.036 278.882 129.447C278.528 129.839 278.154 130.035 277.762 130.035C277.408 130.035 277.23 129.839 277.23 129.447C277.23 129.335 277.352 129.036 277.594 128.551C277.744 128.252 277.856 128.075 277.93 128.019C278.061 127.888 278.266 127.823 278.546 127.823C279.125 127.823 279.414 127.972 279.414 128.271ZM275.942 138.631C275.942 138.817 275.028 139.648 273.198 141.123C272.284 141.851 271.565 142.317 271.042 142.523C270.52 142.728 270.118 142.831 269.838 142.831C269.614 142.831 269.39 142.728 269.166 142.523C268.961 142.336 268.858 142.121 268.858 141.879C268.858 141.692 268.933 141.477 269.082 141.235C269.101 141.197 269.372 140.777 269.894 139.975C270.025 139.695 270.277 139.312 270.65 138.827C270.744 138.752 271.089 138.304 271.686 137.483C272.172 136.811 272.545 136.475 272.806 136.475C273.217 136.475 273.422 136.661 273.422 137.035C273.422 137.24 273.329 137.445 273.142 137.651C272.769 138.08 272.349 138.649 271.882 139.359C271.304 140.236 271.014 140.833 271.014 141.151C271.014 141.319 271.164 141.403 271.462 141.403C271.798 141.403 273.133 140.488 275.466 138.659C275.578 138.547 275.69 138.491 275.802 138.491C275.896 138.491 275.942 138.537 275.942 138.631Z" fill="#231F20"/>
<path d="M287.255 127.067C287.255 127.608 287.06 128.14 286.668 128.663C286.276 129.353 285.65 130.361 284.792 131.687C284.008 132.732 282.944 133.852 281.6 135.047C281.077 135.513 280.433 136.008 279.668 136.531C279.444 136.68 279.126 136.932 278.716 137.287C278.305 137.623 277.633 138.621 276.699 140.283C276.494 140.637 276.392 140.88 276.392 141.011C276.392 141.309 276.578 141.459 276.952 141.459C277.064 141.459 277.297 141.412 277.652 141.319C278.324 141.132 278.93 140.843 279.471 140.451C280.013 140.04 280.778 139.443 281.768 138.659C281.898 138.547 282.01 138.491 282.104 138.491C282.216 138.491 282.272 138.537 282.272 138.631C282.272 138.743 282.048 138.995 281.6 139.387C281.152 139.779 280.741 140.133 280.367 140.451C279.789 140.917 279.052 141.403 278.156 141.907C277.092 142.504 276.307 142.803 275.803 142.803C275.542 142.803 275.253 142.672 274.936 142.411C274.637 142.149 274.488 141.897 274.488 141.655C274.488 141.505 274.628 141.169 274.908 140.647C275.206 140.124 275.355 139.779 275.355 139.611C275.355 139.536 275.328 139.499 275.272 139.499C275.178 139.499 275.001 139.601 274.74 139.807C274.478 140.012 274.282 140.115 274.152 140.115C273.946 140.115 273.844 140.068 273.844 139.975C273.844 139.937 273.946 139.844 274.152 139.695C274.544 139.359 275.122 138.864 275.888 138.211C276.224 137.912 276.7 137.436 277.316 136.783C278.286 135.401 279.191 134.029 280.031 132.667C280.423 132.032 281.357 130.781 282.832 128.915C283.261 128.429 283.905 127.701 284.764 126.731C285.268 126.115 285.716 125.807 286.108 125.807C286.294 125.807 286.518 125.928 286.78 126.171C287.06 126.395 287.209 126.609 287.228 126.815C287.246 126.871 287.255 126.955 287.255 127.067ZM286.023 128.019C286.023 127.851 285.967 127.767 285.855 127.767C284.941 127.767 283.504 129.241 281.544 132.191C281.226 132.583 280.788 133.18 280.228 133.983C279.574 135.177 279.247 135.775 279.247 135.775C279.247 135.831 279.266 135.849 279.303 135.831C279.546 135.737 279.994 135.429 280.648 134.907C280.872 134.739 281.124 134.543 281.404 134.319C282.001 133.815 282.496 133.329 282.888 132.863C284.978 130.324 286.023 128.709 286.023 128.019Z" fill="#231F20"/>
<path d="M287.834 138.631C287.834 138.743 287.601 139.004 287.134 139.415C285.958 140.441 284.987 141.179 284.222 141.627C283.065 142.299 281.917 142.635 280.778 142.635C279.826 142.635 279.35 142.159 279.35 141.207C279.35 140.908 279.565 140.507 279.994 140.003C280.423 139.48 280.871 138.957 281.338 138.435C281.805 137.893 282.337 137.455 282.934 137.119C283.793 136.633 284.353 136.391 284.614 136.391C284.931 136.391 285.09 136.577 285.09 136.951C285.09 137.735 284.651 138.453 283.774 139.107C282.915 139.741 282.197 140.152 281.618 140.339C281.487 140.395 281.413 140.432 281.394 140.451C281.394 140.451 281.375 140.516 281.338 140.647C281.189 141.02 281.114 141.244 281.114 141.319C281.114 141.617 281.375 141.767 281.898 141.767C282.477 141.767 283.177 141.552 283.998 141.123C284.483 140.861 285.594 140.04 287.33 138.659C287.461 138.547 287.573 138.491 287.666 138.491C287.778 138.491 287.834 138.537 287.834 138.631ZM283.942 137.707C283.942 137.669 283.933 137.641 283.914 137.623C283.877 137.623 283.839 137.623 283.802 137.623C283.559 137.623 283.186 137.856 282.682 138.323C282.178 138.771 281.926 139.107 281.926 139.331C281.926 139.387 281.963 139.415 282.038 139.415C282.187 139.415 282.467 139.275 282.878 138.995C283.307 138.715 283.578 138.5 283.69 138.351C283.858 138.071 283.942 137.856 283.942 137.707Z" fill="#231F20"/>
<path d="M295.903 128.271C295.903 128.644 295.725 129.036 295.371 129.447C295.016 129.839 294.643 130.035 294.251 130.035C293.896 130.035 293.719 129.839 293.719 129.447C293.719 129.335 293.84 129.036 294.083 128.551C294.232 128.252 294.344 128.075 294.419 128.019C294.549 127.888 294.755 127.823 295.035 127.823C295.613 127.823 295.903 127.972 295.903 128.271ZM292.431 138.631C292.431 138.817 291.516 139.648 289.687 141.123C288.772 141.851 288.053 142.317 287.531 142.523C287.008 142.728 286.607 142.831 286.327 142.831C286.103 142.831 285.879 142.728 285.655 142.523C285.449 142.336 285.347 142.121 285.347 141.879C285.347 141.692 285.421 141.477 285.571 141.235C285.589 141.197 285.86 140.777 286.383 139.975C286.513 139.695 286.765 139.312 287.139 138.827C287.232 138.752 287.577 138.304 288.175 137.483C288.66 136.811 289.033 136.475 289.295 136.475C289.705 136.475 289.911 136.661 289.911 137.035C289.911 137.24 289.817 137.445 289.631 137.651C289.257 138.08 288.837 138.649 288.371 139.359C287.792 140.236 287.503 140.833 287.503 141.151C287.503 141.319 287.652 141.403 287.951 141.403C288.287 141.403 289.621 140.488 291.955 138.659C292.067 138.547 292.179 138.491 292.291 138.491C292.384 138.491 292.431 138.537 292.431 138.631Z" fill="#231F20"/>
<path d="M144.489 157.783C144.489 158.604 144.293 159.285 143.901 159.827C143.733 160.088 143.341 160.508 142.725 161.087C141.362 162.337 140.037 163.037 138.749 163.187C138.394 163.243 137.694 163.271 136.649 163.271C136.481 163.271 136.359 163.317 136.285 163.411C136.229 163.504 136.163 163.616 136.089 163.747C135.977 163.971 135.827 164.195 135.641 164.419C135.529 164.568 135.081 165.147 134.297 166.155C133.139 167.667 131.861 168.917 130.461 169.907C128.725 171.157 127.082 171.783 125.533 171.783C122.938 171.783 121.641 170.7 121.641 168.535C121.641 167.769 121.855 166.827 122.285 165.707C122.658 164.717 123.097 163.859 123.601 163.131C124.03 162.496 124.618 161.74 125.365 160.863C125.906 160.191 126.447 159.519 126.989 158.847C127.717 157.988 128.342 157.428 128.865 157.167C130.694 156.271 132.579 155.561 134.521 155.039C135.174 154.852 135.827 154.665 136.481 154.479C137.302 154.255 137.965 154.143 138.469 154.143C139.383 154.143 139.981 154.012 140.261 153.751C140.802 153.228 141.315 152.967 141.801 152.967C142.193 152.967 142.389 153.06 142.389 153.247C142.389 153.34 142.258 153.48 141.997 153.667C141.735 153.835 141.605 153.975 141.605 154.087L141.633 154.171C141.651 154.208 141.717 154.255 141.829 154.311C142.389 154.516 142.827 154.759 143.145 155.039C144.041 155.879 144.489 156.793 144.489 157.783ZM142.389 157.475C142.389 156.915 142.323 156.541 142.193 156.355C142.081 156.149 141.847 155.935 141.493 155.711C141.138 155.468 140.858 155.347 140.653 155.347C140.466 155.347 140.289 155.459 140.121 155.683C139.897 156 139.337 157.027 138.441 158.763C137.526 160.555 137.069 161.544 137.069 161.731C137.069 162.085 137.339 162.263 137.881 162.263C138.273 162.263 138.842 162.151 139.589 161.927C140.093 161.759 140.578 161.423 141.045 160.919C141.53 160.415 141.875 159.911 142.081 159.407C142.286 158.884 142.389 158.24 142.389 157.475ZM138.945 155.515C138.945 155.328 138.767 155.235 138.413 155.235C137.573 155.235 136.079 155.552 133.933 156.187C132.831 156.504 132.047 156.747 131.581 156.915C130.703 157.213 129.957 157.521 129.341 157.839C128.743 158.137 127.801 159.043 126.513 160.555C123.881 163.709 122.565 166.276 122.565 168.255C122.565 169.02 122.817 169.701 123.321 170.299C123.638 170.653 124.161 170.831 124.889 170.831C126.363 170.831 127.437 170.672 128.109 170.355C128.557 170.131 129.135 169.72 129.845 169.123C130.573 168.507 131.077 167.993 131.357 167.583C133.578 164.297 134.689 162.449 134.689 162.039C134.689 162.001 134.679 161.945 134.661 161.871C134.642 161.796 134.633 161.74 134.633 161.703C134.633 161.423 134.773 161.283 135.053 161.283C135.146 161.283 135.473 160.853 136.033 159.995C136.593 159.117 137.423 157.848 138.525 156.187C138.805 155.813 138.945 155.589 138.945 155.515Z" fill="#231F20"/>
<path d="M146.065 166.631C146.065 166.873 145.066 167.741 143.069 169.235C142.584 169.589 141.837 170.056 140.829 170.635C140.381 170.821 140.045 170.915 139.821 170.915C139.485 170.915 139.149 170.747 138.813 170.411C138.496 170.075 138.337 169.739 138.337 169.403C138.337 168.955 138.645 168.46 139.261 167.919C139.877 167.377 140.185 167.097 140.185 167.079C140.185 166.78 140.054 166.631 139.793 166.631C139.625 166.631 139.205 166.911 138.533 167.471C137.88 168.012 137.441 168.283 137.217 168.283C137.068 168.283 136.993 168.236 136.993 168.143C136.993 168.161 137.469 167.76 138.421 166.939C139.242 166.248 139.793 165.669 140.073 165.203C140.185 164.904 140.306 164.605 140.437 164.307C140.605 163.933 140.838 163.747 141.137 163.747C141.268 163.747 141.426 163.831 141.613 163.999C141.8 164.148 141.893 164.288 141.893 164.419C141.893 164.587 141.79 164.792 141.585 165.035C141.38 165.277 141.277 165.464 141.277 165.595C141.277 165.8 141.436 165.968 141.753 166.099C142.07 166.211 142.229 166.388 142.229 166.631C142.229 166.724 142.173 166.808 142.061 166.883C141.856 167.032 141.557 167.349 141.165 167.835C140.773 168.301 140.549 168.637 140.493 168.843C140.456 169.029 140.437 169.179 140.437 169.291C140.437 169.589 140.568 169.739 140.829 169.739C141.482 169.739 143.06 168.712 145.561 166.659C145.692 166.547 145.804 166.491 145.897 166.491C146.009 166.491 146.065 166.537 146.065 166.631Z" fill="#231F20"/>
<path d="M151.644 166.631C151.644 166.743 151.411 167.004 150.944 167.415C149.768 168.441 148.798 169.179 148.032 169.627C146.875 170.299 145.727 170.635 144.588 170.635C143.636 170.635 143.16 170.159 143.16 169.207C143.16 168.908 143.375 168.507 143.804 168.003C144.234 167.48 144.682 166.957 145.148 166.435C145.615 165.893 146.147 165.455 146.744 165.119C147.603 164.633 148.163 164.391 148.424 164.391C148.742 164.391 148.9 164.577 148.9 164.951C148.9 165.735 148.462 166.453 147.584 167.107C146.726 167.741 146.007 168.152 145.428 168.339C145.298 168.395 145.223 168.432 145.204 168.451C145.204 168.451 145.186 168.516 145.148 168.647C144.999 169.02 144.924 169.244 144.924 169.319C144.924 169.617 145.186 169.767 145.708 169.767C146.287 169.767 146.987 169.552 147.808 169.123C148.294 168.861 149.404 168.04 151.14 166.659C151.271 166.547 151.383 166.491 151.476 166.491C151.588 166.491 151.644 166.537 151.644 166.631ZM147.752 165.707C147.752 165.669 147.743 165.641 147.724 165.623C147.687 165.623 147.65 165.623 147.612 165.623C147.37 165.623 146.996 165.856 146.492 166.323C145.988 166.771 145.736 167.107 145.736 167.331C145.736 167.387 145.774 167.415 145.848 167.415C145.998 167.415 146.278 167.275 146.688 166.995C147.118 166.715 147.388 166.5 147.5 166.351C147.668 166.071 147.752 165.856 147.752 165.707Z" fill="#231F20"/>
<path d="M156.045 164.587C156.045 164.867 155.849 165.063 155.457 165.175C154.972 165.305 154.654 165.483 154.505 165.707C154.449 165.8 154.421 165.987 154.421 166.267C154.421 166.323 154.458 166.416 154.533 166.547C154.626 166.659 154.682 166.733 154.701 166.771C154.832 167.051 154.897 167.387 154.897 167.779C154.897 168.264 154.72 168.731 154.365 169.179C153.749 169.963 153.105 170.485 152.433 170.747C151.705 171.027 151.201 171.167 150.921 171.167C150.268 171.167 149.717 170.999 149.269 170.663C148.84 170.327 148.625 169.907 148.625 169.403C148.625 169.011 148.69 168.721 148.821 168.535C148.896 168.423 149.045 168.236 149.269 167.975C149.474 167.807 149.633 167.713 149.745 167.695C149.876 167.676 150.034 167.583 150.221 167.415C150.632 167.097 151.248 166.603 152.069 165.931C152.368 165.725 152.685 165.464 153.021 165.147C153.058 165.072 153.18 164.932 153.385 164.727C153.833 164.335 154.458 164.139 155.261 164.139C155.784 164.139 156.045 164.288 156.045 164.587ZM152.993 168.367C152.993 168.18 152.946 167.909 152.853 167.555C152.76 167.2 152.713 166.929 152.713 166.743C152.713 166.78 152.741 166.537 152.797 166.015C152.797 165.996 152.788 165.987 152.769 165.987C152.676 166.005 152.293 166.295 151.621 166.855C150.968 167.396 150.641 167.695 150.641 167.751C150.641 167.788 150.66 167.816 150.697 167.835C150.977 168.003 151.117 168.171 151.117 168.339C151.117 168.6 151.024 168.852 150.837 169.095C150.669 169.319 150.585 169.515 150.585 169.683C150.585 170.056 150.772 170.243 151.145 170.243C151.705 170.243 152.153 170.065 152.489 169.711C152.825 169.356 152.993 168.908 152.993 168.367Z" fill="#231F20"/>
<path d="M166.276 156.271C166.276 156.644 166.098 157.036 165.744 157.447C165.389 157.839 165.016 158.035 164.624 158.035C164.269 158.035 164.092 157.839 164.092 157.447C164.092 157.335 164.213 157.036 164.456 156.551C164.605 156.252 164.717 156.075 164.792 156.019C164.922 155.888 165.128 155.823 165.408 155.823C165.986 155.823 166.276 155.972 166.276 156.271ZM162.804 166.631C162.804 166.817 161.889 167.648 160.06 169.123C159.145 169.851 158.426 170.317 157.904 170.523C157.381 170.728 156.98 170.831 156.7 170.831C156.476 170.831 156.252 170.728 156.028 170.523C155.822 170.336 155.72 170.121 155.72 169.879C155.72 169.692 155.794 169.477 155.944 169.235C155.962 169.197 156.233 168.777 156.756 167.975C156.886 167.695 157.138 167.312 157.512 166.827C157.605 166.752 157.95 166.304 158.548 165.483C159.033 164.811 159.406 164.475 159.668 164.475C160.078 164.475 160.284 164.661 160.284 165.035C160.284 165.24 160.19 165.445 160.004 165.651C159.63 166.08 159.21 166.649 158.744 167.359C158.165 168.236 157.876 168.833 157.876 169.151C157.876 169.319 158.025 169.403 158.324 169.403C158.66 169.403 159.994 168.488 162.328 166.659C162.44 166.547 162.552 166.491 162.664 166.491C162.757 166.491 162.804 166.537 162.804 166.631Z" fill="#231F20"/>
<path d="M176.581 154.535C176.581 154.665 176.45 154.927 176.189 155.319C175.89 155.767 175.713 156.056 175.657 156.187C175.265 156.803 174.789 157.549 174.229 158.427C173.855 159.155 173.295 160.069 172.549 161.171C171.877 161.861 171.466 162.393 171.317 162.767C171.186 163.14 170.645 163.84 169.693 164.867C169.282 165.315 168.778 165.949 168.181 166.771C167.434 167.779 167.061 168.432 167.061 168.731C167.061 169.216 167.266 169.459 167.677 169.459C168.05 169.459 168.862 168.964 170.113 167.975C171.382 166.985 172.063 166.491 172.157 166.491C172.25 166.491 172.297 166.537 172.297 166.631C172.297 166.817 171.653 167.424 170.365 168.451C169.151 169.44 168.367 170.009 168.013 170.159C167.453 170.42 166.967 170.551 166.557 170.551C166.277 170.551 166.025 170.467 165.801 170.299C165.577 170.131 165.465 169.916 165.465 169.655C165.465 169.599 165.446 169.571 165.409 169.571C165.371 169.571 164.989 169.767 164.261 170.159C163.551 170.551 162.926 170.747 162.385 170.747C161.171 170.747 160.565 170.345 160.565 169.543C160.565 168.983 161.013 168.161 161.909 167.079C162.357 166.519 163.075 165.921 164.065 165.287C165.147 164.596 165.987 164.251 166.585 164.251C166.809 164.251 167.061 164.381 167.341 164.643C167.621 164.904 167.798 165.035 167.873 165.035C168.003 165.035 168.134 164.951 168.265 164.783C168.265 164.764 168.498 164.381 168.965 163.635C169.935 162.216 171.335 160.069 173.165 157.195C173.389 156.803 173.622 156.401 173.865 155.991C174.107 155.58 174.378 155.235 174.677 154.955C175.517 154.171 175.993 153.779 176.105 153.779C176.422 153.779 176.581 154.031 176.581 154.535ZM167.145 165.819C167.145 165.669 167.07 165.52 166.921 165.371C166.771 165.203 166.622 165.119 166.473 165.119C166.305 165.119 166.015 165.212 165.605 165.399C165.269 165.548 164.821 165.949 164.261 166.603C164.093 166.864 163.859 167.256 163.561 167.779C163.094 168.563 162.861 169.029 162.861 169.179C162.861 169.328 162.917 169.477 163.029 169.627C163.141 169.757 163.271 169.823 163.421 169.823C163.663 169.823 164.345 169.375 165.465 168.479C165.857 168.18 166.146 167.863 166.333 167.527C166.538 167.172 166.734 166.808 166.921 166.435C167.07 166.192 167.145 165.987 167.145 165.819Z" fill="#231F20"/>
<path d="M177.894 166.631C177.894 166.743 177.661 167.004 177.194 167.415C176.018 168.441 175.048 169.179 174.282 169.627C173.125 170.299 171.977 170.635 170.838 170.635C169.886 170.635 169.41 170.159 169.41 169.207C169.41 168.908 169.625 168.507 170.054 168.003C170.484 167.48 170.932 166.957 171.398 166.435C171.865 165.893 172.397 165.455 172.994 165.119C173.853 164.633 174.413 164.391 174.674 164.391C174.992 164.391 175.15 164.577 175.15 164.951C175.15 165.735 174.712 166.453 173.834 167.107C172.976 167.741 172.257 168.152 171.678 168.339C171.548 168.395 171.473 168.432 171.454 168.451C171.454 168.451 171.436 168.516 171.398 168.647C171.249 169.02 171.174 169.244 171.174 169.319C171.174 169.617 171.436 169.767 171.958 169.767C172.537 169.767 173.237 169.552 174.058 169.123C174.544 168.861 175.654 168.04 177.39 166.659C177.521 166.547 177.633 166.491 177.726 166.491C177.838 166.491 177.894 166.537 177.894 166.631ZM174.002 165.707C174.002 165.669 173.993 165.641 173.974 165.623C173.937 165.623 173.9 165.623 173.862 165.623C173.62 165.623 173.246 165.856 172.742 166.323C172.238 166.771 171.986 167.107 171.986 167.331C171.986 167.387 172.024 167.415 172.098 167.415C172.248 167.415 172.528 167.275 172.938 166.995C173.368 166.715 173.638 166.5 173.75 166.351C173.918 166.071 174.002 165.856 174.002 165.707Z" fill="#231F20"/>
<path d="M187.923 166.631C187.923 166.855 186.952 167.732 185.011 169.263C184.376 169.748 183.835 170.075 183.387 170.243C182.379 170.597 181.744 170.775 181.483 170.775C181.166 170.775 180.82 170.513 180.447 169.991C180.354 169.897 180.307 169.785 180.307 169.655C180.307 169.281 180.792 168.6 181.763 167.611C182.752 166.621 183.247 166.052 183.247 165.903C183.247 165.753 183.079 165.679 182.743 165.679C182.444 165.679 182.071 165.828 181.623 166.127C181.287 166.351 180.942 166.584 180.587 166.827C180.027 167.163 179.514 167.657 179.047 168.311C178.692 168.74 178.216 169.412 177.619 170.327C177.507 170.532 177.33 170.635 177.087 170.635C176.415 170.635 176.079 170.467 176.079 170.131C176.079 169.981 176.163 169.804 176.331 169.599C176.723 169.132 177.274 168.404 177.983 167.415C178.02 167.359 178.188 167.125 178.487 166.715C178.748 166.36 178.879 166.155 178.879 166.099C178.879 166.061 178.86 166.033 178.823 166.015C178.804 166.015 178.412 166.332 177.647 166.967C176.882 167.601 176.452 167.919 176.359 167.919C176.266 167.919 176.219 167.844 176.219 167.695C176.219 167.62 176.322 167.499 176.527 167.331C176.751 167.144 177.348 166.612 178.319 165.735C178.506 165.492 178.823 165.184 179.271 164.811C179.458 164.699 179.626 164.643 179.775 164.643C179.943 164.643 180.102 164.736 180.251 164.923C180.4 165.109 180.475 165.287 180.475 165.455C180.475 165.567 180.4 165.725 180.251 165.931C180.12 166.117 180.055 166.239 180.055 166.295C180.055 166.351 180.083 166.379 180.139 166.379C180.232 166.379 180.69 166.117 181.511 165.595C182.351 165.072 183.088 164.811 183.723 164.811C183.984 164.811 184.218 164.941 184.423 165.203C184.647 165.464 184.759 165.725 184.759 165.987C184.759 166.416 184.302 167.107 183.387 168.059C182.472 169.011 182.015 169.552 182.015 169.683L182.043 169.739C182.118 169.813 182.23 169.851 182.379 169.851C182.976 169.851 183.602 169.608 184.255 169.123C185.263 168.376 186.327 167.555 187.447 166.659C187.578 166.547 187.69 166.491 187.783 166.491C187.876 166.491 187.923 166.537 187.923 166.631Z" fill="#231F20"/>
<path d="M205.321 161.423C205.321 161.684 205.116 161.824 204.705 161.843C203.996 161.824 202.932 161.843 201.513 161.899C201.046 161.917 200.729 161.927 200.561 161.927C200.636 161.927 200.412 161.899 199.889 161.843C199.609 161.805 199.236 161.787 198.769 161.787H198.041C197.649 161.787 197.08 161.815 196.333 161.871C195.605 161.927 195.054 161.955 194.681 161.955C194.588 161.955 194.438 161.945 194.233 161.927C194.028 161.927 193.878 161.927 193.785 161.927C193.057 161.927 192.086 162.916 190.873 164.895C190.574 165.268 190.173 165.865 189.669 166.687C189.594 166.892 189.473 167.181 189.305 167.555C189.249 167.685 189.072 167.956 188.773 168.367C188.53 168.684 188.409 168.964 188.409 169.207C188.409 169.543 188.558 169.711 188.857 169.711C189.417 169.711 190.397 169.179 191.797 168.115C193.216 167.032 193.953 166.491 194.009 166.491C194.102 166.491 194.149 166.537 194.149 166.631C194.149 166.743 193.916 167.004 193.449 167.415C192.814 167.975 191.834 168.749 190.509 169.739C190.248 169.869 189.865 170.065 189.361 170.327C189.268 170.401 189.025 170.485 188.633 170.579C188.241 170.691 187.98 170.747 187.849 170.747C187.55 170.747 187.252 170.635 186.953 170.411C186.673 170.187 186.533 169.925 186.533 169.627C186.533 169.403 186.729 168.964 187.121 168.311C187.308 167.993 187.504 167.676 187.709 167.359C187.69 167.34 187.653 167.331 187.597 167.331C187.504 167.331 187.27 167.48 186.897 167.779C186.542 168.059 186.29 168.199 186.141 168.199C185.954 168.199 185.861 168.161 185.861 168.087C185.861 168.031 185.964 167.928 186.169 167.779C186.636 167.331 187.373 166.687 188.381 165.847C189.165 165.249 190.089 164.148 191.153 162.543C191.284 162.337 191.349 162.197 191.349 162.123C191.349 162.029 191.293 161.983 191.181 161.983C191.088 161.964 190.938 161.936 190.733 161.899C190.528 161.861 190.36 161.843 190.229 161.843C190.117 161.843 189.94 161.861 189.697 161.899C189.454 161.936 189.277 161.955 189.165 161.955C189.072 161.955 188.932 161.955 188.745 161.955C188.577 161.936 188.437 161.927 188.325 161.927H187.485C186.514 161.927 185.964 161.899 185.833 161.843C185.702 161.787 185.637 161.703 185.637 161.591C185.637 161.441 185.721 161.348 185.889 161.311C186.076 161.273 186.757 161.255 187.933 161.255C188.138 161.255 188.437 161.236 188.829 161.199C189.221 161.161 189.52 161.143 189.725 161.143C189.874 161.143 190.117 161.143 190.453 161.143C190.789 161.161 191.041 161.171 191.209 161.171C191.657 161.171 191.956 161.105 192.105 160.975C192.665 160.508 193.122 159.92 193.477 159.211C193.813 158.557 194.373 157.792 195.157 156.915C195.362 156.653 195.568 156.392 195.773 156.131C196.072 155.795 196.333 155.608 196.557 155.571C196.725 155.552 196.865 155.543 196.977 155.543C197.276 155.543 197.425 155.636 197.425 155.823C197.425 155.972 197.285 156.271 197.005 156.719C196.725 157.167 196.501 157.456 196.333 157.587C195.978 157.867 195.596 158.324 195.185 158.959C194.98 159.257 194.588 159.743 194.009 160.415C193.916 160.527 193.869 160.62 193.869 160.695C193.869 160.937 194.112 161.077 194.597 161.115C194.746 161.133 195.372 161.161 196.473 161.199C197.817 161.236 198.47 161.255 198.433 161.255H198.657C199.273 161.217 200.206 161.171 201.457 161.115H201.709C201.952 161.115 202.306 161.143 202.773 161.199C203.24 161.236 203.585 161.255 203.809 161.255C203.94 161.255 204.126 161.245 204.369 161.227C204.63 161.208 204.817 161.199 204.929 161.199C205.19 161.199 205.321 161.273 205.321 161.423Z" fill="#231F20"/>
<path d="M199.742 166.631C199.742 166.743 199.509 167.004 199.042 167.415C197.866 168.441 196.895 169.179 196.13 169.627C194.973 170.299 193.825 170.635 192.686 170.635C191.734 170.635 191.258 170.159 191.258 169.207C191.258 168.908 191.473 168.507 191.902 168.003C192.331 167.48 192.779 166.957 193.246 166.435C193.713 165.893 194.245 165.455 194.842 165.119C195.701 164.633 196.261 164.391 196.522 164.391C196.839 164.391 196.998 164.577 196.998 164.951C196.998 165.735 196.559 166.453 195.682 167.107C194.823 167.741 194.105 168.152 193.526 168.339C193.395 168.395 193.321 168.432 193.302 168.451C193.302 168.451 193.283 168.516 193.246 168.647C193.097 169.02 193.022 169.244 193.022 169.319C193.022 169.617 193.283 169.767 193.806 169.767C194.385 169.767 195.085 169.552 195.906 169.123C196.391 168.861 197.502 168.04 199.238 166.659C199.369 166.547 199.481 166.491 199.574 166.491C199.686 166.491 199.742 166.537 199.742 166.631ZM195.85 165.707C195.85 165.669 195.841 165.641 195.822 165.623C195.785 165.623 195.747 165.623 195.71 165.623C195.467 165.623 195.094 165.856 194.59 166.323C194.086 166.771 193.834 167.107 193.834 167.331C193.834 167.387 193.871 167.415 193.946 167.415C194.095 167.415 194.375 167.275 194.786 166.995C195.215 166.715 195.486 166.5 195.598 166.351C195.766 166.071 195.85 165.856 195.85 165.707Z" fill="#231F20"/>
<path d="M220.03 154.535C220.03 154.665 219.899 154.927 219.638 155.319C219.339 155.767 219.162 156.056 219.106 156.187C218.714 156.803 218.238 157.549 217.678 158.427C217.305 159.155 216.745 160.069 215.998 161.171C215.326 161.861 214.915 162.393 214.766 162.767C214.635 163.14 214.094 163.84 213.142 164.867C212.731 165.315 212.227 165.949 211.63 166.771C210.883 167.779 210.51 168.432 210.51 168.731C210.51 169.216 210.715 169.459 211.126 169.459C211.499 169.459 212.311 168.964 213.562 167.975C214.831 166.985 215.513 166.491 215.606 166.491C215.699 166.491 215.746 166.537 215.746 166.631C215.746 166.817 215.102 167.424 213.814 168.451C212.601 169.44 211.817 170.009 211.462 170.159C210.902 170.42 210.417 170.551 210.006 170.551C209.726 170.551 209.474 170.467 209.25 170.299C209.026 170.131 208.914 169.916 208.914 169.655C208.914 169.599 208.895 169.571 208.858 169.571C208.821 169.571 208.438 169.767 207.71 170.159C207.001 170.551 206.375 170.747 205.834 170.747C204.621 170.747 204.014 170.345 204.014 169.543C204.014 168.983 204.462 168.161 205.358 167.079C205.806 166.519 206.525 165.921 207.514 165.287C208.597 164.596 209.437 164.251 210.034 164.251C210.258 164.251 210.51 164.381 210.79 164.643C211.07 164.904 211.247 165.035 211.322 165.035C211.453 165.035 211.583 164.951 211.714 164.783C211.714 164.764 211.947 164.381 212.414 163.635C213.385 162.216 214.785 160.069 216.614 157.195C216.838 156.803 217.071 156.401 217.314 155.991C217.557 155.58 217.827 155.235 218.126 154.955C218.966 154.171 219.442 153.779 219.554 153.779C219.871 153.779 220.03 154.031 220.03 154.535ZM210.594 165.819C210.594 165.669 210.519 165.52 210.37 165.371C210.221 165.203 210.071 165.119 209.922 165.119C209.754 165.119 209.465 165.212 209.054 165.399C208.718 165.548 208.27 165.949 207.71 166.603C207.542 166.864 207.309 167.256 207.01 167.779C206.543 168.563 206.31 169.029 206.31 169.179C206.31 169.328 206.366 169.477 206.478 169.627C206.59 169.757 206.721 169.823 206.87 169.823C207.113 169.823 207.794 169.375 208.914 168.479C209.306 168.18 209.595 167.863 209.782 167.527C209.987 167.172 210.183 166.808 210.37 166.435C210.519 166.192 210.594 165.987 210.594 165.819Z" fill="#231F20"/>
<path d="M221.344 166.631C221.344 166.743 221.11 167.004 220.644 167.415C219.468 168.441 218.497 169.179 217.732 169.627C216.574 170.299 215.426 170.635 214.288 170.635C213.336 170.635 212.86 170.159 212.86 169.207C212.86 168.908 213.074 168.507 213.504 168.003C213.933 167.48 214.381 166.957 214.848 166.435C215.314 165.893 215.846 165.455 216.444 165.119C217.302 164.633 217.862 164.391 218.124 164.391C218.441 164.391 218.6 164.577 218.6 164.951C218.6 165.735 218.161 166.453 217.284 167.107C216.425 167.741 215.706 168.152 215.128 168.339C214.997 168.395 214.922 168.432 214.904 168.451C214.904 168.451 214.885 168.516 214.848 168.647C214.698 169.02 214.624 169.244 214.624 169.319C214.624 169.617 214.885 169.767 215.408 169.767C215.986 169.767 216.686 169.552 217.508 169.123C217.993 168.861 219.104 168.04 220.84 166.659C220.97 166.547 221.082 166.491 221.176 166.491C221.288 166.491 221.344 166.537 221.344 166.631ZM217.452 165.707C217.452 165.669 217.442 165.641 217.424 165.623C217.386 165.623 217.349 165.623 217.312 165.623C217.069 165.623 216.696 165.856 216.192 166.323C215.688 166.771 215.436 167.107 215.436 167.331C215.436 167.387 215.473 167.415 215.548 167.415C215.697 167.415 215.977 167.275 216.388 166.995C216.817 166.715 217.088 166.5 217.2 166.351C217.368 166.071 217.452 165.856 217.452 165.707Z" fill="#231F20"/>
<path d="M239.167 155.067C239.167 155.608 238.971 156.14 238.579 156.663C238.187 157.353 237.562 158.361 236.704 159.687C235.92 160.732 234.856 161.852 233.512 163.047C232.989 163.513 232.345 164.008 231.579 164.531C231.355 164.68 231.038 164.932 230.628 165.287C230.217 165.623 229.545 166.621 228.611 168.283C228.406 168.637 228.303 168.88 228.303 169.011C228.303 169.309 228.49 169.459 228.863 169.459C228.975 169.459 229.209 169.412 229.564 169.319C230.236 169.132 230.842 168.843 231.383 168.451C231.925 168.04 232.69 167.443 233.68 166.659C233.81 166.547 233.922 166.491 234.016 166.491C234.128 166.491 234.184 166.537 234.184 166.631C234.184 166.743 233.96 166.995 233.512 167.387C233.064 167.779 232.653 168.133 232.279 168.451C231.701 168.917 230.964 169.403 230.068 169.907C229.004 170.504 228.219 170.803 227.715 170.803C227.454 170.803 227.165 170.672 226.848 170.411C226.549 170.149 226.4 169.897 226.4 169.655C226.4 169.505 226.54 169.169 226.82 168.647C227.118 168.124 227.268 167.779 227.268 167.611C227.268 167.536 227.24 167.499 227.184 167.499C227.09 167.499 226.913 167.601 226.652 167.807C226.39 168.012 226.194 168.115 226.064 168.115C225.858 168.115 225.756 168.068 225.756 167.975C225.756 167.937 225.858 167.844 226.064 167.695C226.456 167.359 227.034 166.864 227.799 166.211C228.135 165.912 228.612 165.436 229.228 164.783C230.198 163.401 231.103 162.029 231.943 160.667C232.335 160.032 233.269 158.781 234.743 156.915C235.173 156.429 235.817 155.701 236.676 154.731C237.18 154.115 237.628 153.807 238.02 153.807C238.206 153.807 238.43 153.928 238.691 154.171C238.971 154.395 239.121 154.609 239.139 154.815C239.158 154.871 239.167 154.955 239.167 155.067ZM237.936 156.019C237.936 155.851 237.88 155.767 237.768 155.767C236.853 155.767 235.416 157.241 233.456 160.191C233.138 160.583 232.699 161.18 232.139 161.983C231.486 163.177 231.16 163.775 231.16 163.775C231.16 163.831 231.178 163.849 231.215 163.831C231.458 163.737 231.906 163.429 232.56 162.907C232.784 162.739 233.036 162.543 233.316 162.319C233.913 161.815 234.407 161.329 234.799 160.863C236.89 158.324 237.936 156.709 237.936 156.019Z" fill="#231F20"/>
<path d="M241.846 166.631C241.846 166.724 241.762 166.845 241.594 166.995C241.183 167.405 240.483 168.012 239.494 168.815C238.355 169.729 237.609 170.243 237.254 170.355C236.899 170.467 236.619 170.523 236.414 170.523C236.078 170.523 235.826 170.373 235.658 170.075C235.509 169.795 235.406 169.655 235.35 169.655C235.238 169.655 234.902 169.832 234.342 170.187C233.969 170.448 233.53 170.579 233.026 170.579C232.167 170.579 231.738 170.345 231.738 169.879C231.738 169.132 231.869 168.6 232.13 168.283C232.261 168.096 232.475 167.835 232.774 167.499C233.166 167.107 233.801 166.556 234.678 165.847C236.003 164.988 236.871 164.559 237.282 164.559C237.674 164.559 237.926 164.699 238.038 164.979C238.169 165.259 238.281 165.399 238.374 165.399C238.505 165.399 238.645 165.315 238.794 165.147C238.962 164.96 239.158 164.867 239.382 164.867C239.681 164.867 239.83 164.969 239.83 165.175C239.83 165.324 239.382 165.921 238.486 166.967C237.609 168.012 237.17 168.684 237.17 168.983C237.17 169.244 237.254 169.375 237.422 169.375C237.795 169.375 238.57 168.899 239.746 167.947C240.941 166.976 241.594 166.491 241.706 166.491C241.799 166.491 241.846 166.537 241.846 166.631ZM237.506 165.707C237.506 165.464 237.394 165.343 237.17 165.343C236.591 165.343 235.873 165.781 235.014 166.659C234.155 167.517 233.726 168.255 233.726 168.871C233.726 169.188 233.875 169.347 234.174 169.347C234.435 169.347 234.809 169.179 235.294 168.843C235.779 168.507 236.125 168.217 236.33 167.975C237.114 166.985 237.506 166.229 237.506 165.707Z" fill="#231F20"/>
<path d="M311 156.299C311 156.504 310.851 156.607 310.552 156.607C310.44 156.607 310.337 156.457 310.244 156.159C310.188 155.953 310.132 155.748 310.076 155.543C309.217 153.153 305.839 151.959 299.94 151.959C296.561 151.959 293.099 152.36 289.552 153.163C288.693 153.368 286.631 154.012 283.364 155.095C282.225 155.468 280.527 156.056 278.268 156.859C274.273 158.427 270.568 160.265 267.152 162.375C265.36 163.476 264.268 164.372 263.876 165.063C263.671 165.529 263.353 166.211 262.924 167.107C262.756 167.368 262.551 167.788 262.308 168.367C262.177 168.889 262.103 169.179 262.084 169.235C261.991 169.533 261.86 169.804 261.692 170.047C261.3 170.551 260.871 170.803 260.404 170.803C259.975 170.803 259.76 170.681 259.76 170.439C259.76 170.42 260.152 169.645 260.936 168.115C261.123 167.741 261.356 167.069 261.636 166.099C261.916 165.128 262.056 164.465 262.056 164.111C262.056 164.017 262.037 163.877 262 163.691C261.981 163.504 261.972 163.373 261.972 163.299C261.972 163.131 261.981 162.897 262 162.599C262.037 162.281 262.056 162.039 262.056 161.871C262.056 161.012 261.953 160.583 261.748 160.583C261.599 160.583 261.3 160.928 260.852 161.619C260.087 162.795 259.368 163.691 258.696 164.307C257.987 165.035 256.867 166.052 255.336 167.359C254.496 167.956 253.656 168.553 252.816 169.151C251.659 169.935 250.8 170.429 250.24 170.635C249.923 170.747 249.689 170.803 249.54 170.803C249.503 170.803 249.456 170.793 249.4 170.775C249.344 170.775 249.297 170.775 249.26 170.775C249.129 170.775 248.933 170.821 248.672 170.915C248.411 171.008 248.205 171.055 248.056 171.055C247.589 171.055 247.179 170.933 246.824 170.691C246.413 170.411 246.208 170.047 246.208 169.599C246.208 169.375 246.273 169.048 246.404 168.619C246.553 168.171 246.693 167.853 246.824 167.667L247.384 166.827C247.664 166.435 247.907 166.183 248.112 166.071C248.336 165.959 248.681 165.903 249.148 165.903C249.764 165.903 250.072 166.257 250.072 166.967C250.072 167.527 249.96 167.947 249.736 168.227C249.624 168.376 249.409 168.535 249.092 168.703C248.868 168.833 248.756 168.973 248.756 169.123C248.756 169.384 249.036 169.515 249.596 169.515C250.38 169.515 251.332 169.151 252.452 168.423C254.3 167.228 255.859 166.005 257.128 164.755C258.416 163.485 259.667 161.927 260.88 160.079C261.141 159.705 261.403 159.341 261.664 158.987C261.832 158.707 261.963 158.259 262.056 157.643C262.243 156.317 262.681 155.197 263.372 154.283C264.007 153.443 264.557 153.023 265.024 153.023C265.509 153.023 265.752 153.181 265.752 153.499C265.752 153.592 265.659 153.853 265.472 154.283C265.136 155.029 264.744 155.655 264.296 156.159C263.867 156.663 263.652 157.167 263.652 157.671C263.652 157.764 263.661 157.913 263.68 158.119C263.717 158.324 263.736 158.483 263.736 158.595C263.736 158.651 263.717 158.744 263.68 158.875C263.643 159.005 263.624 159.108 263.624 159.183C263.624 159.388 263.68 159.687 263.792 160.079C263.923 160.471 263.988 160.769 263.988 160.975C263.988 161.161 263.969 161.432 263.932 161.787C263.895 162.141 263.876 162.403 263.876 162.571C263.876 162.963 263.988 163.159 264.212 163.159C264.324 163.159 264.492 163.075 264.716 162.907C268.02 160.555 272.463 158.277 278.044 156.075C278.903 155.739 281.731 154.815 286.528 153.303C291.456 151.772 296.02 151.007 300.22 151.007H300.584C303.179 151.007 305.101 151.175 306.352 151.511C308.48 152.089 309.889 153.247 310.58 154.983C310.86 155.711 311 156.149 311 156.299Z" fill="#231F20"/>
<path d="M274.44 166.631C274.44 166.724 274.356 166.845 274.188 166.995C273.777 167.405 273.077 168.012 272.088 168.815C270.949 169.729 270.202 170.243 269.848 170.355C269.493 170.467 269.213 170.523 269.008 170.523C268.672 170.523 268.42 170.373 268.252 170.075C268.102 169.795 268 169.655 267.944 169.655C267.832 169.655 267.496 169.832 266.936 170.187C266.562 170.448 266.124 170.579 265.62 170.579C264.761 170.579 264.332 170.345 264.332 169.879C264.332 169.132 264.462 168.6 264.724 168.283C264.854 168.096 265.069 167.835 265.368 167.499C265.76 167.107 266.394 166.556 267.272 165.847C268.597 164.988 269.465 164.559 269.876 164.559C270.268 164.559 270.52 164.699 270.632 164.979C270.762 165.259 270.874 165.399 270.968 165.399C271.098 165.399 271.238 165.315 271.388 165.147C271.556 164.96 271.752 164.867 271.976 164.867C272.274 164.867 272.424 164.969 272.424 165.175C272.424 165.324 271.976 165.921 271.08 166.967C270.202 168.012 269.764 168.684 269.764 168.983C269.764 169.244 269.848 169.375 270.016 169.375C270.389 169.375 271.164 168.899 272.34 167.947C273.534 166.976 274.188 166.491 274.3 166.491C274.393 166.491 274.44 166.537 274.44 166.631ZM270.1 165.707C270.1 165.464 269.988 165.343 269.764 165.343C269.185 165.343 268.466 165.781 267.608 166.659C266.749 167.517 266.32 168.255 266.32 168.871C266.32 169.188 266.469 169.347 266.768 169.347C267.029 169.347 267.402 169.179 267.888 168.843C268.373 168.507 268.718 168.217 268.924 167.975C269.708 166.985 270.1 166.229 270.1 165.707Z" fill="#231F20"/>
<path d="M280.807 166.631C280.807 166.743 280.573 167.004 280.107 167.415C278.651 168.703 277.213 169.645 275.795 170.243C274.955 170.597 274.404 170.775 274.143 170.775C273.527 170.775 273.107 170.728 272.883 170.635C272.323 170.448 272.043 170.159 272.043 169.767C272.043 168.497 272.939 167.2 274.731 165.875C276.187 164.792 277.101 164.251 277.475 164.251C278.427 164.251 278.903 164.615 278.903 165.343C278.903 165.548 278.753 165.819 278.455 166.155C278.175 166.491 277.932 166.659 277.727 166.659C277.596 166.659 277.475 166.593 277.363 166.463C277.251 166.332 277.195 166.192 277.195 166.043C277.195 165.987 277.213 165.884 277.251 165.735C277.307 165.585 277.335 165.473 277.335 165.399C277.335 165.249 277.288 165.175 277.195 165.175C276.989 165.175 276.635 165.315 276.131 165.595C275.627 165.875 275.347 166.099 275.291 166.267C275.272 166.36 275.169 166.556 274.983 166.855C274.815 167.135 274.731 167.359 274.731 167.527C274.731 167.676 274.628 167.947 274.423 168.339C274.217 168.712 274.115 169.011 274.115 169.235C274.115 169.683 274.329 169.907 274.759 169.907C274.983 169.907 275.281 169.813 275.655 169.627C275.879 169.533 276.224 169.375 276.691 169.151C276.821 169.095 277.195 168.88 277.811 168.507C277.997 168.395 278.287 168.217 278.679 167.975C278.865 167.844 279.416 167.405 280.331 166.659C280.443 166.547 280.555 166.491 280.667 166.491C280.76 166.491 280.807 166.537 280.807 166.631Z" fill="#231F20"/>
<path d="M288.94 156.271C288.94 156.644 288.762 157.036 288.408 157.447C288.053 157.839 287.68 158.035 287.288 158.035C286.933 158.035 286.756 157.839 286.756 157.447C286.756 157.335 286.877 157.036 287.12 156.551C287.269 156.252 287.381 156.075 287.456 156.019C287.586 155.888 287.792 155.823 288.072 155.823C288.65 155.823 288.94 155.972 288.94 156.271ZM285.468 166.631C285.468 166.817 284.553 167.648 282.724 169.123C281.809 169.851 281.09 170.317 280.568 170.523C280.045 170.728 279.644 170.831 279.364 170.831C279.14 170.831 278.916 170.728 278.692 170.523C278.486 170.336 278.384 170.121 278.384 169.879C278.384 169.692 278.458 169.477 278.608 169.235C278.626 169.197 278.897 168.777 279.42 167.975C279.55 167.695 279.802 167.312 280.176 166.827C280.269 166.752 280.614 166.304 281.212 165.483C281.697 164.811 282.07 164.475 282.332 164.475C282.742 164.475 282.948 164.661 282.948 165.035C282.948 165.24 282.854 165.445 282.668 165.651C282.294 166.08 281.874 166.649 281.408 167.359C280.829 168.236 280.54 168.833 280.54 169.151C280.54 169.319 280.689 169.403 280.988 169.403C281.324 169.403 282.658 168.488 284.992 166.659C285.104 166.547 285.216 166.491 285.328 166.491C285.421 166.491 285.468 166.537 285.468 166.631Z" fill="#231F20"/>
<path d="M292.917 166.631C292.917 166.817 292.506 167.228 291.685 167.863C290.938 168.441 290.425 168.777 290.145 168.871C290.014 168.908 289.874 168.927 289.725 168.927C289.389 168.927 289.09 168.843 288.829 168.675C288.586 168.507 288.483 168.423 288.521 168.423C288.409 168.423 288.25 168.572 288.045 168.871C287.783 169.3 287.317 169.739 286.645 170.187C285.973 170.635 285.394 170.859 284.909 170.859C283.714 170.859 283.117 170.364 283.117 169.375C283.117 168.945 283.677 168.105 284.797 166.855C285.506 166.071 286.281 165.483 287.121 165.091C287.382 164.941 287.653 164.792 287.933 164.643C288.231 164.475 288.493 164.391 288.717 164.391C288.959 164.391 289.146 164.475 289.277 164.643C289.706 165.24 289.921 165.595 289.921 165.707C289.921 165.744 289.911 165.819 289.893 165.931C289.874 166.024 289.865 166.099 289.865 166.155C289.865 166.211 289.874 166.295 289.893 166.407C289.911 166.519 289.921 166.603 289.921 166.659C289.921 166.901 289.837 167.116 289.669 167.303C289.519 167.489 289.445 167.62 289.445 167.695C289.445 167.993 289.641 168.143 290.033 168.143C290.387 168.143 290.901 167.872 291.573 167.331C292.263 166.771 292.655 166.491 292.749 166.491C292.861 166.491 292.917 166.537 292.917 166.631ZM288.521 165.679C288.521 165.529 288.399 165.455 288.157 165.455C288.063 165.455 287.933 165.483 287.765 165.539C287.466 165.651 286.999 166.155 286.365 167.051C285.73 167.947 285.413 168.591 285.413 168.983C285.413 169.393 285.599 169.599 285.973 169.599C286.309 169.599 286.729 169.347 287.233 168.843C287.662 168.413 287.97 168.012 288.157 167.639C288.231 167.471 288.269 167.284 288.269 167.079C288.269 167.023 288.259 166.948 288.241 166.855C288.222 166.743 288.213 166.659 288.213 166.603C288.213 166.379 288.259 166.173 288.353 165.987C288.465 165.8 288.521 165.697 288.521 165.679ZM296.977 155.207C296.977 155.767 296.603 156.317 295.857 156.859C295.315 157.307 294.643 157.801 293.841 158.343C293.579 158.38 293.159 158.52 292.581 158.763C292.375 158.893 292.067 159.089 291.657 159.351C291.339 159.5 290.891 159.733 290.313 160.051C289.921 160.312 289.538 160.573 289.165 160.835C288.717 161.077 288.269 161.199 287.821 161.199C287.653 161.199 287.569 161.171 287.569 161.115C287.569 160.853 288.39 160.284 290.033 159.407C290.481 159.164 291.545 158.52 293.225 157.475C294.177 156.877 294.951 156.345 295.549 155.879C296.258 155.319 296.687 155.039 296.837 155.039C296.93 155.039 296.977 155.095 296.977 155.207Z" fill="#231F20"/>
<path d="M302.876 166.631C302.876 166.855 301.906 167.732 299.964 169.263C299.33 169.748 298.788 170.075 298.34 170.243C297.332 170.597 296.698 170.775 296.436 170.775C296.119 170.775 295.774 170.513 295.4 169.991C295.307 169.897 295.26 169.785 295.26 169.655C295.26 169.281 295.746 168.6 296.716 167.611C297.706 166.621 298.2 166.052 298.2 165.903C298.2 165.753 298.032 165.679 297.696 165.679C297.398 165.679 297.024 165.828 296.576 166.127C296.24 166.351 295.895 166.584 295.54 166.827C294.98 167.163 294.467 167.657 294 168.311C293.646 168.74 293.17 169.412 292.572 170.327C292.46 170.532 292.283 170.635 292.04 170.635C291.368 170.635 291.032 170.467 291.032 170.131C291.032 169.981 291.116 169.804 291.284 169.599C291.676 169.132 292.227 168.404 292.936 167.415C292.974 167.359 293.142 167.125 293.44 166.715C293.702 166.36 293.832 166.155 293.832 166.099C293.832 166.061 293.814 166.033 293.776 166.015C293.758 166.015 293.366 166.332 292.6 166.967C291.835 167.601 291.406 167.919 291.312 167.919C291.219 167.919 291.172 167.844 291.172 167.695C291.172 167.62 291.275 167.499 291.48 167.331C291.704 167.144 292.302 166.612 293.272 165.735C293.459 165.492 293.776 165.184 294.224 164.811C294.411 164.699 294.579 164.643 294.728 164.643C294.896 164.643 295.055 164.736 295.204 164.923C295.354 165.109 295.428 165.287 295.428 165.455C295.428 165.567 295.354 165.725 295.204 165.931C295.074 166.117 295.008 166.239 295.008 166.295C295.008 166.351 295.036 166.379 295.092 166.379C295.186 166.379 295.643 166.117 296.464 165.595C297.304 165.072 298.042 164.811 298.676 164.811C298.938 164.811 299.171 164.941 299.376 165.203C299.6 165.464 299.712 165.725 299.712 165.987C299.712 166.416 299.255 167.107 298.34 168.059C297.426 169.011 296.968 169.552 296.968 169.683L296.996 169.739C297.071 169.813 297.183 169.851 297.332 169.851C297.93 169.851 298.555 169.608 299.208 169.123C300.216 168.376 301.28 167.555 302.4 166.659C302.531 166.547 302.643 166.491 302.736 166.491C302.83 166.491 302.876 166.537 302.876 166.631Z" fill="#231F20"/>
</svg>
